<svg xmlns="http://www.w3.org/2000/svg" xmlns:xlink="http://www.w3.org/1999/xlink" width="500" zoomAndPan="magnify" viewBox="0 0 375 374.999991" height="500" preserveAspectRatio="xMidYMid meet" version="1.0"><defs><g/><clipPath id="bf0c4586f6"><path d="M 0 115.65625 L 103.960938 115.65625 L 103.960938 219.617188 L 0 219.617188 Z M 0 115.65625 " clip-rule="nonzero"/></clipPath><clipPath id="1eff2e119c"><path d="M 51.980469 115.65625 C 23.273438 115.65625 0 138.929688 0 167.636719 C 0 196.34375 23.273438 219.617188 51.980469 219.617188 C 80.691406 219.617188 103.960938 196.34375 103.960938 167.636719 C 103.960938 138.929688 80.691406 115.65625 51.980469 115.65625 Z M 51.980469 115.65625 " clip-rule="nonzero"/></clipPath><clipPath id="5904720c6d"><path d="M 0 115.65625 L 103.796875 115.65625 L 103.796875 219.453125 L 0 219.453125 Z M 0 115.65625 " clip-rule="nonzero"/></clipPath><clipPath id="01b7b6591e"><path d="M 51.980469 115.65625 C 23.273438 115.65625 0 138.925781 0 167.632812 C 0 196.34375 23.273438 219.613281 51.980469 219.613281 C 80.6875 219.613281 103.960938 196.34375 103.960938 167.632812 C 103.960938 138.925781 80.6875 115.65625 51.980469 115.65625 Z M 51.980469 115.65625 " clip-rule="nonzero"/></clipPath><clipPath id="d9909a7775"><path d="M 3.398438 119.050781 L 99.894531 119.050781 L 99.894531 215.550781 L 3.398438 215.550781 Z M 3.398438 119.050781 " clip-rule="nonzero"/></clipPath><clipPath id="482ae4cf66"><path d="M 51.644531 119.050781 C 25 119.050781 3.398438 140.652344 3.398438 167.300781 C 3.398438 193.949219 25 215.550781 51.644531 215.550781 C 78.292969 215.550781 99.894531 193.949219 99.894531 167.300781 C 99.894531 140.652344 78.292969 119.050781 51.644531 119.050781 Z M 51.644531 119.050781 " clip-rule="nonzero"/></clipPath><clipPath id="9be6f7a8c3"><path d="M 3.398438 119.050781 L 99.890625 119.050781 L 99.890625 215.546875 L 3.398438 215.546875 Z M 3.398438 119.050781 " clip-rule="nonzero"/></clipPath><clipPath id="3185787d12"><path d="M 51.644531 119.050781 C 24.996094 119.050781 3.398438 140.652344 3.398438 167.296875 C 3.398438 193.945312 24.996094 215.546875 51.644531 215.546875 C 78.289062 215.546875 99.890625 193.945312 99.890625 167.296875 C 99.890625 140.652344 78.289062 119.050781 51.644531 119.050781 Z M 51.644531 119.050781 " clip-rule="nonzero"/></clipPath><clipPath id="911f2b504f"><path d="M 52 151 L 57 151 L 57 156 L 52 156 Z M 52 151 " clip-rule="nonzero"/></clipPath><clipPath id="7169720fc3"><path d="M 53.914062 151.058594 C 54.855469 151.609375 55.800781 152.21875 56.746094 152.890625 L 55.664062 155.507812 C 54.53125 154.679688 53.386719 153.949219 52.253906 153.320312 Z M 53.914062 151.058594 " clip-rule="nonzero"/></clipPath><linearGradient x1="243.739" gradientTransform="matrix(0.0998455, 0, 0, 0.0998455, 30.163666, 139.841397)" y1="156.899924" x2="243.739" gradientUnits="userSpaceOnUse" y2="112.329918" id="c8fc8ec6b1"><stop stop-opacity="1" stop-color="rgb(94.500732%, 38.404846%, 12.498474%)" offset="0"/><stop stop-opacity="1" stop-color="rgb(94.519043%, 38.528442%, 12.461853%)" offset="0.0078125"/><stop stop-opacity="1" stop-color="rgb(94.555664%, 38.775635%, 12.391663%)" offset="0.015625"/><stop stop-opacity="1" stop-color="rgb(94.592285%, 39.024353%, 12.321472%)" offset="0.0234375"/><stop stop-opacity="1" stop-color="rgb(94.628906%, 39.273071%, 12.251282%)" offset="0.03125"/><stop stop-opacity="1" stop-color="rgb(94.665527%, 39.52179%, 12.181091%)" offset="0.0390625"/><stop stop-opacity="1" stop-color="rgb(94.702148%, 39.770508%, 12.110901%)" offset="0.046875"/><stop stop-opacity="1" stop-color="rgb(94.73877%, 40.0177%, 12.04071%)" offset="0.0546875"/><stop stop-opacity="1" stop-color="rgb(94.775391%, 40.266418%, 11.97052%)" offset="0.0625"/><stop stop-opacity="1" stop-color="rgb(94.812012%, 40.515137%, 11.90033%)" offset="0.0703125"/><stop stop-opacity="1" stop-color="rgb(94.848633%, 40.763855%, 11.830139%)" offset="0.078125"/><stop stop-opacity="1" stop-color="rgb(94.885254%, 41.011047%, 11.759949%)" offset="0.0859375"/><stop stop-opacity="1" stop-color="rgb(94.921875%, 41.259766%, 11.689758%)" offset="0.09375"/><stop stop-opacity="1" stop-color="rgb(94.958496%, 41.508484%, 11.619568%)" offset="0.101562"/><stop stop-opacity="1" stop-color="rgb(94.995117%, 41.757202%, 11.549377%)" offset="0.109375"/><stop stop-opacity="1" stop-color="rgb(95.031738%, 42.00592%, 11.477661%)" offset="0.117188"/><stop stop-opacity="1" stop-color="rgb(95.068359%, 42.253113%, 11.407471%)" offset="0.125"/><stop stop-opacity="1" stop-color="rgb(95.10498%, 42.501831%, 11.33728%)" offset="0.132812"/><stop stop-opacity="1" stop-color="rgb(95.143127%, 42.750549%, 11.26709%)" offset="0.140625"/><stop stop-opacity="1" stop-color="rgb(95.179749%, 42.999268%, 11.196899%)" offset="0.148438"/><stop stop-opacity="1" stop-color="rgb(95.21637%, 43.247986%, 11.126709%)" offset="0.15625"/><stop stop-opacity="1" stop-color="rgb(95.252991%, 43.495178%, 11.056519%)" offset="0.164062"/><stop stop-opacity="1" stop-color="rgb(95.289612%, 43.743896%, 10.986328%)" offset="0.171875"/><stop stop-opacity="1" stop-color="rgb(95.326233%, 43.992615%, 10.916138%)" offset="0.179688"/><stop stop-opacity="1" stop-color="rgb(95.362854%, 44.241333%, 10.845947%)" offset="0.1875"/><stop stop-opacity="1" stop-color="rgb(95.399475%, 44.490051%, 10.775757%)" offset="0.195312"/><stop stop-opacity="1" stop-color="rgb(95.436096%, 44.737244%, 10.705566%)" offset="0.203125"/><stop stop-opacity="1" stop-color="rgb(95.472717%, 44.985962%, 10.635376%)" offset="0.210938"/><stop stop-opacity="1" stop-color="rgb(95.509338%, 45.23468%, 10.565186%)" offset="0.21875"/><stop stop-opacity="1" stop-color="rgb(95.545959%, 45.483398%, 10.493469%)" offset="0.226562"/><stop stop-opacity="1" stop-color="rgb(95.582581%, 45.730591%, 10.423279%)" offset="0.234375"/><stop stop-opacity="1" stop-color="rgb(95.619202%, 45.979309%, 10.353088%)" offset="0.242188"/><stop stop-opacity="1" stop-color="rgb(95.655823%, 46.228027%, 10.282898%)" offset="0.25"/><stop stop-opacity="1" stop-color="rgb(95.692444%, 46.476746%, 10.212708%)" offset="0.257812"/><stop stop-opacity="1" stop-color="rgb(95.729065%, 46.725464%, 10.142517%)" offset="0.265625"/><stop stop-opacity="1" stop-color="rgb(95.767212%, 46.972656%, 10.072327%)" offset="0.273437"/><stop stop-opacity="1" stop-color="rgb(95.803833%, 47.221375%, 10.002136%)" offset="0.28125"/><stop stop-opacity="1" stop-color="rgb(95.840454%, 47.470093%, 9.931946%)" offset="0.289062"/><stop stop-opacity="1" stop-color="rgb(95.877075%, 47.718811%, 9.861755%)" offset="0.296875"/><stop stop-opacity="1" stop-color="rgb(95.913696%, 47.967529%, 9.791565%)" offset="0.304688"/><stop stop-opacity="1" stop-color="rgb(95.950317%, 48.214722%, 9.721375%)" offset="0.3125"/><stop stop-opacity="1" stop-color="rgb(95.986938%, 48.46344%, 9.651184%)" offset="0.320312"/><stop stop-opacity="1" stop-color="rgb(96.02356%, 48.712158%, 9.580994%)" offset="0.328125"/><stop stop-opacity="1" stop-color="rgb(96.060181%, 48.960876%, 9.509277%)" offset="0.335938"/><stop stop-opacity="1" stop-color="rgb(96.096802%, 49.208069%, 9.439087%)" offset="0.34375"/><stop stop-opacity="1" stop-color="rgb(96.133423%, 49.456787%, 9.368896%)" offset="0.351563"/><stop stop-opacity="1" stop-color="rgb(96.170044%, 49.705505%, 9.298706%)" offset="0.359375"/><stop stop-opacity="1" stop-color="rgb(96.206665%, 49.954224%, 9.228516%)" offset="0.367187"/><stop stop-opacity="1" stop-color="rgb(96.243286%, 50.202942%, 9.158325%)" offset="0.375"/><stop stop-opacity="1" stop-color="rgb(96.279907%, 50.450134%, 9.088135%)" offset="0.382812"/><stop stop-opacity="1" stop-color="rgb(96.316528%, 50.698853%, 9.017944%)" offset="0.390625"/><stop stop-opacity="1" stop-color="rgb(96.353149%, 50.947571%, 8.947754%)" offset="0.398437"/><stop stop-opacity="1" stop-color="rgb(96.391296%, 51.196289%, 8.877563%)" offset="0.40625"/><stop stop-opacity="1" stop-color="rgb(96.427917%, 51.445007%, 8.807373%)" offset="0.414062"/><stop stop-opacity="1" stop-color="rgb(96.464539%, 51.6922%, 8.737183%)" offset="0.421875"/><stop stop-opacity="1" stop-color="rgb(96.50116%, 51.940918%, 8.666992%)" offset="0.429688"/><stop stop-opacity="1" stop-color="rgb(96.537781%, 52.189636%, 8.596802%)" offset="0.4375"/><stop stop-opacity="1" stop-color="rgb(96.574402%, 52.438354%, 8.525085%)" offset="0.445312"/><stop stop-opacity="1" stop-color="rgb(96.611023%, 52.685547%, 8.454895%)" offset="0.453125"/><stop stop-opacity="1" stop-color="rgb(96.647644%, 52.934265%, 8.384705%)" offset="0.460938"/><stop stop-opacity="1" stop-color="rgb(96.684265%, 53.182983%, 8.314514%)" offset="0.46875"/><stop stop-opacity="1" stop-color="rgb(96.720886%, 53.431702%, 8.244324%)" offset="0.476563"/><stop stop-opacity="1" stop-color="rgb(96.757507%, 53.68042%, 8.174133%)" offset="0.484375"/><stop stop-opacity="1" stop-color="rgb(96.794128%, 53.927612%, 8.103943%)" offset="0.492188"/><stop stop-opacity="1" stop-color="rgb(96.83075%, 54.176331%, 8.033752%)" offset="0.5"/><stop stop-opacity="1" stop-color="rgb(96.867371%, 54.425049%, 7.963562%)" offset="0.507813"/><stop stop-opacity="1" stop-color="rgb(96.903992%, 54.673767%, 7.893372%)" offset="0.515625"/><stop stop-opacity="1" stop-color="rgb(96.940613%, 54.922485%, 7.823181%)" offset="0.523438"/><stop stop-opacity="1" stop-color="rgb(96.97876%, 55.169678%, 7.752991%)" offset="0.53125"/><stop stop-opacity="1" stop-color="rgb(97.015381%, 55.418396%, 7.6828%)" offset="0.539062"/><stop stop-opacity="1" stop-color="rgb(97.052002%, 55.667114%, 7.61261%)" offset="0.546875"/><stop stop-opacity="1" stop-color="rgb(97.088623%, 55.915833%, 7.540894%)" offset="0.554688"/><stop stop-opacity="1" stop-color="rgb(97.125244%, 56.163025%, 7.470703%)" offset="0.5625"/><stop stop-opacity="1" stop-color="rgb(97.161865%, 56.411743%, 7.400513%)" offset="0.570312"/><stop stop-opacity="1" stop-color="rgb(97.198486%, 56.660461%, 7.330322%)" offset="0.578125"/><stop stop-opacity="1" stop-color="rgb(97.235107%, 56.90918%, 7.260132%)" offset="0.585938"/><stop stop-opacity="1" stop-color="rgb(97.271729%, 57.157898%, 7.189941%)" offset="0.59375"/><stop stop-opacity="1" stop-color="rgb(97.30835%, 57.40509%, 7.119751%)" offset="0.601563"/><stop stop-opacity="1" stop-color="rgb(97.344971%, 57.653809%, 7.049561%)" offset="0.609375"/><stop stop-opacity="1" stop-color="rgb(97.381592%, 57.902527%, 6.97937%)" offset="0.617188"/><stop stop-opacity="1" stop-color="rgb(97.418213%, 58.151245%, 6.90918%)" offset="0.625"/><stop stop-opacity="1" stop-color="rgb(97.454834%, 58.399963%, 6.838989%)" offset="0.632812"/><stop stop-opacity="1" stop-color="rgb(97.491455%, 58.647156%, 6.768799%)" offset="0.640625"/><stop stop-opacity="1" stop-color="rgb(97.528076%, 58.895874%, 6.698608%)" offset="0.648438"/><stop stop-opacity="1" stop-color="rgb(97.564697%, 59.144592%, 6.628418%)" offset="0.65625"/><stop stop-opacity="1" stop-color="rgb(97.602844%, 59.393311%, 6.556702%)" offset="0.664063"/><stop stop-opacity="1" stop-color="rgb(97.639465%, 59.642029%, 6.486511%)" offset="0.671875"/><stop stop-opacity="1" stop-color="rgb(97.676086%, 59.889221%, 6.416321%)" offset="0.679688"/><stop stop-opacity="1" stop-color="rgb(97.712708%, 60.137939%, 6.34613%)" offset="0.6875"/><stop stop-opacity="1" stop-color="rgb(97.749329%, 60.386658%, 6.27594%)" offset="0.695313"/><stop stop-opacity="1" stop-color="rgb(97.78595%, 60.635376%, 6.20575%)" offset="0.703125"/><stop stop-opacity="1" stop-color="rgb(97.822571%, 60.882568%, 6.135559%)" offset="0.710938"/><stop stop-opacity="1" stop-color="rgb(97.859192%, 61.131287%, 6.065369%)" offset="0.71875"/><stop stop-opacity="1" stop-color="rgb(97.895813%, 61.380005%, 5.995178%)" offset="0.726562"/><stop stop-opacity="1" stop-color="rgb(97.932434%, 61.628723%, 5.924988%)" offset="0.734375"/><stop stop-opacity="1" stop-color="rgb(97.969055%, 61.877441%, 5.854797%)" offset="0.742188"/><stop stop-opacity="1" stop-color="rgb(98.005676%, 62.124634%, 5.784607%)" offset="0.75"/><stop stop-opacity="1" stop-color="rgb(98.042297%, 62.373352%, 5.714417%)" offset="0.757813"/><stop stop-opacity="1" stop-color="rgb(98.078918%, 62.62207%, 5.644226%)" offset="0.765625"/><stop stop-opacity="1" stop-color="rgb(98.11554%, 62.870789%, 5.57251%)" offset="0.773438"/><stop stop-opacity="1" stop-color="rgb(98.152161%, 63.119507%, 5.502319%)" offset="0.78125"/><stop stop-opacity="1" stop-color="rgb(98.188782%, 63.366699%, 5.432129%)" offset="0.789062"/><stop stop-opacity="1" stop-color="rgb(98.226929%, 63.615417%, 5.361938%)" offset="0.796875"/><stop stop-opacity="1" stop-color="rgb(98.26355%, 63.864136%, 5.291748%)" offset="0.804688"/><stop stop-opacity="1" stop-color="rgb(98.300171%, 64.112854%, 5.221558%)" offset="0.8125"/><stop stop-opacity="1" stop-color="rgb(98.336792%, 64.360046%, 5.151367%)" offset="0.820313"/><stop stop-opacity="1" stop-color="rgb(98.373413%, 64.608765%, 5.081177%)" offset="0.828125"/><stop stop-opacity="1" stop-color="rgb(98.410034%, 64.857483%, 5.010986%)" offset="0.835938"/><stop stop-opacity="1" stop-color="rgb(98.446655%, 65.106201%, 4.940796%)" offset="0.84375"/><stop stop-opacity="1" stop-color="rgb(98.483276%, 65.354919%, 4.870605%)" offset="0.851562"/><stop stop-opacity="1" stop-color="rgb(98.519897%, 65.602112%, 4.800415%)" offset="0.859375"/><stop stop-opacity="1" stop-color="rgb(98.556519%, 65.85083%, 4.730225%)" offset="0.867188"/><stop stop-opacity="1" stop-color="rgb(98.59314%, 66.099548%, 4.660034%)" offset="0.875"/><stop stop-opacity="1" stop-color="rgb(98.629761%, 66.348267%, 4.588318%)" offset="0.882812"/><stop stop-opacity="1" stop-color="rgb(98.666382%, 66.596985%, 4.518127%)" offset="0.890625"/><stop stop-opacity="1" stop-color="rgb(98.703003%, 66.844177%, 4.447937%)" offset="0.898438"/><stop stop-opacity="1" stop-color="rgb(98.739624%, 67.092896%, 4.377747%)" offset="0.90625"/><stop stop-opacity="1" stop-color="rgb(98.776245%, 67.341614%, 4.307556%)" offset="0.914062"/><stop stop-opacity="1" stop-color="rgb(98.812866%, 67.590332%, 4.237366%)" offset="0.921875"/><stop stop-opacity="1" stop-color="rgb(98.851013%, 67.837524%, 4.167175%)" offset="0.929687"/><stop stop-opacity="1" stop-color="rgb(98.887634%, 68.086243%, 4.096985%)" offset="0.9375"/><stop stop-opacity="1" stop-color="rgb(98.924255%, 68.334961%, 4.026794%)" offset="0.945312"/><stop stop-opacity="1" stop-color="rgb(98.960876%, 68.583679%, 3.956604%)" offset="0.953125"/><stop stop-opacity="1" stop-color="rgb(98.997498%, 68.832397%, 3.886414%)" offset="0.960938"/><stop stop-opacity="1" stop-color="rgb(99.034119%, 69.07959%, 3.816223%)" offset="0.96875"/><stop stop-opacity="1" stop-color="rgb(99.07074%, 69.328308%, 3.746033%)" offset="0.976562"/><stop stop-opacity="1" stop-color="rgb(99.107361%, 69.577026%, 3.675842%)" offset="0.984375"/><stop stop-opacity="1" stop-color="rgb(99.143982%, 69.825745%, 3.604126%)" offset="0.992188"/><stop stop-opacity="1" stop-color="rgb(99.180603%, 70.074463%, 3.533936%)" offset="1"/></linearGradient><clipPath id="3f46c12ab5"><path d="M 62 161 L 67 161 L 67 165 L 62 165 Z M 62 161 " clip-rule="nonzero"/></clipPath><clipPath id="b51b1caf7b"><path d="M 64.621094 164.640625 C 63.960938 163.695312 63.234375 162.75 62.445312 161.820312 L 65.578125 161.320312 C 65.847656 161.664062 66.113281 162.007812 66.367188 162.351562 Z M 64.621094 164.640625 " clip-rule="nonzero"/></clipPath><linearGradient x1="342.96899" gradientTransform="matrix(0.0998455, 0, 0, 0.0998455, 30.163666, 139.841397)" y1="248.379913" x2="342.96899" gradientUnits="userSpaceOnUse" y2="215.119914" id="8986cab162"><stop stop-opacity="1" stop-color="rgb(94.499207%, 38.401794%, 12.498474%)" offset="0"/><stop stop-opacity="1" stop-color="rgb(94.517517%, 38.525391%, 12.463379%)" offset="0.0078125"/><stop stop-opacity="1" stop-color="rgb(94.554138%, 38.774109%, 12.393188%)" offset="0.015625"/><stop stop-opacity="1" stop-color="rgb(94.590759%, 39.022827%, 12.322998%)" offset="0.0234375"/><stop stop-opacity="1" stop-color="rgb(94.628906%, 39.271545%, 12.252808%)" offset="0.03125"/><stop stop-opacity="1" stop-color="rgb(94.665527%, 39.520264%, 12.182617%)" offset="0.0390625"/><stop stop-opacity="1" stop-color="rgb(94.702148%, 39.767456%, 12.110901%)" offset="0.046875"/><stop stop-opacity="1" stop-color="rgb(94.73877%, 40.016174%, 12.04071%)" offset="0.0546875"/><stop stop-opacity="1" stop-color="rgb(94.775391%, 40.264893%, 11.97052%)" offset="0.0625"/><stop stop-opacity="1" stop-color="rgb(94.812012%, 40.513611%, 11.90033%)" offset="0.0703125"/><stop stop-opacity="1" stop-color="rgb(94.848633%, 40.762329%, 11.830139%)" offset="0.078125"/><stop stop-opacity="1" stop-color="rgb(94.885254%, 41.011047%, 11.759949%)" offset="0.0859375"/><stop stop-opacity="1" stop-color="rgb(94.921875%, 41.25824%, 11.689758%)" offset="0.09375"/><stop stop-opacity="1" stop-color="rgb(94.958496%, 41.506958%, 11.619568%)" offset="0.101562"/><stop stop-opacity="1" stop-color="rgb(94.995117%, 41.755676%, 11.549377%)" offset="0.109375"/><stop stop-opacity="1" stop-color="rgb(95.031738%, 42.004395%, 11.479187%)" offset="0.117188"/><stop stop-opacity="1" stop-color="rgb(95.068359%, 42.253113%, 11.408997%)" offset="0.125"/><stop stop-opacity="1" stop-color="rgb(95.10498%, 42.500305%, 11.338806%)" offset="0.132812"/><stop stop-opacity="1" stop-color="rgb(95.141602%, 42.749023%, 11.26709%)" offset="0.140625"/><stop stop-opacity="1" stop-color="rgb(95.178223%, 42.997742%, 11.196899%)" offset="0.148437"/><stop stop-opacity="1" stop-color="rgb(95.21637%, 43.24646%, 11.126709%)" offset="0.15625"/><stop stop-opacity="1" stop-color="rgb(95.252991%, 43.495178%, 11.056519%)" offset="0.164062"/><stop stop-opacity="1" stop-color="rgb(95.289612%, 43.743896%, 10.986328%)" offset="0.171875"/><stop stop-opacity="1" stop-color="rgb(95.326233%, 43.991089%, 10.916138%)" offset="0.179688"/><stop stop-opacity="1" stop-color="rgb(95.362854%, 44.239807%, 10.845947%)" offset="0.1875"/><stop stop-opacity="1" stop-color="rgb(95.399475%, 44.488525%, 10.775757%)" offset="0.195312"/><stop stop-opacity="1" stop-color="rgb(95.436096%, 44.737244%, 10.705566%)" offset="0.203125"/><stop stop-opacity="1" stop-color="rgb(95.472717%, 44.985962%, 10.635376%)" offset="0.210938"/><stop stop-opacity="1" stop-color="rgb(95.509338%, 45.23468%, 10.565186%)" offset="0.21875"/><stop stop-opacity="1" stop-color="rgb(95.545959%, 45.481873%, 10.494995%)" offset="0.226563"/><stop stop-opacity="1" stop-color="rgb(95.582581%, 45.730591%, 10.423279%)" offset="0.234375"/><stop stop-opacity="1" stop-color="rgb(95.619202%, 45.979309%, 10.353088%)" offset="0.242188"/><stop stop-opacity="1" stop-color="rgb(95.655823%, 46.228027%, 10.282898%)" offset="0.25"/><stop stop-opacity="1" stop-color="rgb(95.692444%, 46.476746%, 10.212708%)" offset="0.257812"/><stop stop-opacity="1" stop-color="rgb(95.729065%, 46.725464%, 10.142517%)" offset="0.265625"/><stop stop-opacity="1" stop-color="rgb(95.767212%, 46.972656%, 10.072327%)" offset="0.273438"/><stop stop-opacity="1" stop-color="rgb(95.803833%, 47.221375%, 10.002136%)" offset="0.28125"/><stop stop-opacity="1" stop-color="rgb(95.840454%, 47.470093%, 9.931946%)" offset="0.289063"/><stop stop-opacity="1" stop-color="rgb(95.877075%, 47.718811%, 9.861755%)" offset="0.296875"/><stop stop-opacity="1" stop-color="rgb(95.913696%, 47.967529%, 9.791565%)" offset="0.304688"/><stop stop-opacity="1" stop-color="rgb(95.950317%, 48.214722%, 9.721375%)" offset="0.3125"/><stop stop-opacity="1" stop-color="rgb(95.986938%, 48.46344%, 9.651184%)" offset="0.320313"/><stop stop-opacity="1" stop-color="rgb(96.02356%, 48.712158%, 9.579468%)" offset="0.328125"/><stop stop-opacity="1" stop-color="rgb(96.060181%, 48.960876%, 9.509277%)" offset="0.335938"/><stop stop-opacity="1" stop-color="rgb(96.096802%, 49.209595%, 9.439087%)" offset="0.34375"/><stop stop-opacity="1" stop-color="rgb(96.133423%, 49.458313%, 9.368896%)" offset="0.351563"/><stop stop-opacity="1" stop-color="rgb(96.170044%, 49.705505%, 9.298706%)" offset="0.359375"/><stop stop-opacity="1" stop-color="rgb(96.206665%, 49.954224%, 9.228516%)" offset="0.367188"/><stop stop-opacity="1" stop-color="rgb(96.243286%, 50.202942%, 9.158325%)" offset="0.375"/><stop stop-opacity="1" stop-color="rgb(96.279907%, 50.45166%, 9.088135%)" offset="0.382813"/><stop stop-opacity="1" stop-color="rgb(96.318054%, 50.700378%, 9.017944%)" offset="0.390625"/><stop stop-opacity="1" stop-color="rgb(96.354675%, 50.949097%, 8.947754%)" offset="0.398438"/><stop stop-opacity="1" stop-color="rgb(96.391296%, 51.196289%, 8.877563%)" offset="0.40625"/><stop stop-opacity="1" stop-color="rgb(96.427917%, 51.445007%, 8.807373%)" offset="0.414063"/><stop stop-opacity="1" stop-color="rgb(96.464539%, 51.693726%, 8.735657%)" offset="0.421875"/><stop stop-opacity="1" stop-color="rgb(96.50116%, 51.942444%, 8.665466%)" offset="0.429688"/><stop stop-opacity="1" stop-color="rgb(96.537781%, 52.191162%, 8.595276%)" offset="0.4375"/><stop stop-opacity="1" stop-color="rgb(96.574402%, 52.43988%, 8.525085%)" offset="0.445313"/><stop stop-opacity="1" stop-color="rgb(96.611023%, 52.687073%, 8.454895%)" offset="0.453125"/><stop stop-opacity="1" stop-color="rgb(96.647644%, 52.935791%, 8.384705%)" offset="0.460938"/><stop stop-opacity="1" stop-color="rgb(96.684265%, 53.184509%, 8.314514%)" offset="0.46875"/><stop stop-opacity="1" stop-color="rgb(96.720886%, 53.433228%, 8.244324%)" offset="0.476562"/><stop stop-opacity="1" stop-color="rgb(96.757507%, 53.681946%, 8.174133%)" offset="0.484375"/><stop stop-opacity="1" stop-color="rgb(96.794128%, 53.929138%, 8.103943%)" offset="0.492188"/><stop stop-opacity="1" stop-color="rgb(96.83075%, 54.177856%, 8.033752%)" offset="0.5"/><stop stop-opacity="1" stop-color="rgb(96.867371%, 54.426575%, 7.963562%)" offset="0.507812"/><stop stop-opacity="1" stop-color="rgb(96.905518%, 54.675293%, 7.891846%)" offset="0.515625"/><stop stop-opacity="1" stop-color="rgb(96.942139%, 54.924011%, 7.821655%)" offset="0.523437"/><stop stop-opacity="1" stop-color="rgb(96.97876%, 55.172729%, 7.751465%)" offset="0.53125"/><stop stop-opacity="1" stop-color="rgb(97.015381%, 55.419922%, 7.681274%)" offset="0.539062"/><stop stop-opacity="1" stop-color="rgb(97.052002%, 55.66864%, 7.611084%)" offset="0.546875"/><stop stop-opacity="1" stop-color="rgb(97.088623%, 55.917358%, 7.540894%)" offset="0.554688"/><stop stop-opacity="1" stop-color="rgb(97.125244%, 56.166077%, 7.470703%)" offset="0.5625"/><stop stop-opacity="1" stop-color="rgb(97.161865%, 56.414795%, 7.400513%)" offset="0.570312"/><stop stop-opacity="1" stop-color="rgb(97.198486%, 56.663513%, 7.330322%)" offset="0.578125"/><stop stop-opacity="1" stop-color="rgb(97.235107%, 56.910706%, 7.260132%)" offset="0.585938"/><stop stop-opacity="1" stop-color="rgb(97.271729%, 57.159424%, 7.189941%)" offset="0.59375"/><stop stop-opacity="1" stop-color="rgb(97.30835%, 57.408142%, 7.119751%)" offset="0.601562"/><stop stop-opacity="1" stop-color="rgb(97.344971%, 57.65686%, 7.048035%)" offset="0.609375"/><stop stop-opacity="1" stop-color="rgb(97.381592%, 57.905579%, 6.977844%)" offset="0.617188"/><stop stop-opacity="1" stop-color="rgb(97.418213%, 58.152771%, 6.907654%)" offset="0.625"/><stop stop-opacity="1" stop-color="rgb(97.45636%, 58.401489%, 6.837463%)" offset="0.632813"/><stop stop-opacity="1" stop-color="rgb(97.492981%, 58.650208%, 6.767273%)" offset="0.640625"/><stop stop-opacity="1" stop-color="rgb(97.529602%, 58.898926%, 6.697083%)" offset="0.648438"/><stop stop-opacity="1" stop-color="rgb(97.566223%, 59.147644%, 6.626892%)" offset="0.65625"/><stop stop-opacity="1" stop-color="rgb(97.602844%, 59.396362%, 6.556702%)" offset="0.664063"/><stop stop-opacity="1" stop-color="rgb(97.639465%, 59.643555%, 6.486511%)" offset="0.671875"/><stop stop-opacity="1" stop-color="rgb(97.676086%, 59.892273%, 6.416321%)" offset="0.679688"/><stop stop-opacity="1" stop-color="rgb(97.712708%, 60.140991%, 6.34613%)" offset="0.6875"/><stop stop-opacity="1" stop-color="rgb(97.749329%, 60.389709%, 6.27594%)" offset="0.695313"/><stop stop-opacity="1" stop-color="rgb(97.78595%, 60.638428%, 6.20575%)" offset="0.703125"/><stop stop-opacity="1" stop-color="rgb(97.822571%, 60.887146%, 6.134033%)" offset="0.710938"/><stop stop-opacity="1" stop-color="rgb(97.859192%, 61.134338%, 6.063843%)" offset="0.71875"/><stop stop-opacity="1" stop-color="rgb(97.895813%, 61.383057%, 5.993652%)" offset="0.726562"/><stop stop-opacity="1" stop-color="rgb(97.932434%, 61.631775%, 5.923462%)" offset="0.734375"/><stop stop-opacity="1" stop-color="rgb(97.969055%, 61.880493%, 5.853271%)" offset="0.742188"/><stop stop-opacity="1" stop-color="rgb(98.007202%, 62.129211%, 5.783081%)" offset="0.75"/><stop stop-opacity="1" stop-color="rgb(98.043823%, 62.37793%, 5.712891%)" offset="0.757813"/><stop stop-opacity="1" stop-color="rgb(98.080444%, 62.625122%, 5.6427%)" offset="0.765625"/><stop stop-opacity="1" stop-color="rgb(98.117065%, 62.87384%, 5.57251%)" offset="0.773438"/><stop stop-opacity="1" stop-color="rgb(98.153687%, 63.122559%, 5.502319%)" offset="0.78125"/><stop stop-opacity="1" stop-color="rgb(98.190308%, 63.371277%, 5.432129%)" offset="0.789063"/><stop stop-opacity="1" stop-color="rgb(98.226929%, 63.619995%, 5.361938%)" offset="0.796875"/><stop stop-opacity="1" stop-color="rgb(98.26355%, 63.867188%, 5.290222%)" offset="0.804688"/><stop stop-opacity="1" stop-color="rgb(98.300171%, 64.115906%, 5.220032%)" offset="0.8125"/><stop stop-opacity="1" stop-color="rgb(98.336792%, 64.364624%, 5.149841%)" offset="0.820312"/><stop stop-opacity="1" stop-color="rgb(98.373413%, 64.613342%, 5.079651%)" offset="0.828125"/><stop stop-opacity="1" stop-color="rgb(98.410034%, 64.862061%, 5.00946%)" offset="0.835938"/><stop stop-opacity="1" stop-color="rgb(98.446655%, 65.110779%, 4.93927%)" offset="0.84375"/><stop stop-opacity="1" stop-color="rgb(98.483276%, 65.357971%, 4.86908%)" offset="0.851562"/><stop stop-opacity="1" stop-color="rgb(98.519897%, 65.606689%, 4.798889%)" offset="0.859375"/><stop stop-opacity="1" stop-color="rgb(98.558044%, 65.855408%, 4.728699%)" offset="0.867188"/><stop stop-opacity="1" stop-color="rgb(98.594666%, 66.104126%, 4.658508%)" offset="0.875"/><stop stop-opacity="1" stop-color="rgb(98.631287%, 66.352844%, 4.588318%)" offset="0.882812"/><stop stop-opacity="1" stop-color="rgb(98.667908%, 66.601562%, 4.518127%)" offset="0.890625"/><stop stop-opacity="1" stop-color="rgb(98.704529%, 66.848755%, 4.446411%)" offset="0.898438"/><stop stop-opacity="1" stop-color="rgb(98.74115%, 67.097473%, 4.376221%)" offset="0.90625"/><stop stop-opacity="1" stop-color="rgb(98.777771%, 67.346191%, 4.30603%)" offset="0.914063"/><stop stop-opacity="1" stop-color="rgb(98.814392%, 67.59491%, 4.23584%)" offset="0.921875"/><stop stop-opacity="1" stop-color="rgb(98.851013%, 67.843628%, 4.165649%)" offset="0.929688"/><stop stop-opacity="1" stop-color="rgb(98.887634%, 68.092346%, 4.095459%)" offset="0.9375"/><stop stop-opacity="1" stop-color="rgb(98.924255%, 68.339539%, 4.025269%)" offset="0.945312"/><stop stop-opacity="1" stop-color="rgb(98.960876%, 68.588257%, 3.955078%)" offset="0.953125"/><stop stop-opacity="1" stop-color="rgb(98.997498%, 68.836975%, 3.884888%)" offset="0.960937"/><stop stop-opacity="1" stop-color="rgb(99.034119%, 69.085693%, 3.814697%)" offset="0.96875"/><stop stop-opacity="1" stop-color="rgb(99.07074%, 69.334412%, 3.744507%)" offset="0.976562"/><stop stop-opacity="1" stop-color="rgb(99.107361%, 69.581604%, 3.674316%)" offset="0.984375"/><stop stop-opacity="1" stop-color="rgb(99.145508%, 69.830322%, 3.6026%)" offset="0.992188"/><stop stop-opacity="1" stop-color="rgb(99.180603%, 70.077515%, 3.53241%)" offset="1"/></linearGradient><clipPath id="adca6336f7"><path d="M 30 139.839844 L 75 139.839844 L 75 194.855469 L 30 194.855469 Z M 30 139.839844 " clip-rule="nonzero"/></clipPath><clipPath id="e95170b8f2"><path d="M 12.148438 173.8125 L 15.988281 173.8125 L 15.988281 177.65625 L 12.148438 177.65625 Z M 12.148438 173.8125 " clip-rule="nonzero"/></clipPath><clipPath id="4198fc77cc"><path d="M 14.066406 173.8125 C 13.007812 173.8125 12.148438 174.675781 12.148438 175.734375 C 12.148438 176.796875 13.007812 177.65625 14.066406 177.65625 C 15.128906 177.65625 15.988281 176.796875 15.988281 175.734375 C 15.988281 174.675781 15.128906 173.8125 14.066406 173.8125 Z M 14.066406 173.8125 " clip-rule="nonzero"/></clipPath><clipPath id="43fc6dfad2"><path d="M 87.304688 173.8125 L 91.144531 173.8125 L 91.144531 177.65625 L 87.304688 177.65625 Z M 87.304688 173.8125 " clip-rule="nonzero"/></clipPath><clipPath id="8f83480fdc"><path d="M 89.222656 173.8125 C 88.164062 173.8125 87.304688 174.675781 87.304688 175.734375 C 87.304688 176.796875 88.164062 177.65625 89.222656 177.65625 C 90.285156 177.65625 91.144531 176.796875 91.144531 175.734375 C 91.144531 174.675781 90.285156 173.8125 89.222656 173.8125 Z M 89.222656 173.8125 " clip-rule="nonzero"/></clipPath></defs><g clip-path="url(#bf0c4586f6)"><g clip-path="url(#1eff2e119c)"><path fill="#ffffff" d="M 0 115.65625 L 103.960938 115.65625 L 103.960938 219.617188 L 0 219.617188 Z M 0 115.65625 " fill-opacity="1" fill-rule="nonzero"/></g></g><g clip-path="url(#5904720c6d)"><g clip-path="url(#01b7b6591e)"><path stroke-linecap="butt" transform="matrix(0.34599, 0, 0, 0.34599, 0.0000045, 115.655047)" fill="none" stroke-linejoin="miter" d="M 150.237044 0.00347755 C 67.266267 0.00347755 -0.0000130062 67.258467 -0.0000130062 150.229245 C -0.0000130062 233.211312 67.266267 300.466302 150.237044 300.466302 C 233.207821 300.466302 300.474101 233.211312 300.474101 150.229245 C 300.474101 67.258467 233.207821 0.00347755 150.237044 0.00347755 Z M 150.237044 0.00347755 " stroke="#000000" stroke-width="13.006168" stroke-opacity="1" stroke-miterlimit="4"/></g></g><g clip-path="url(#d9909a7775)"><g clip-path="url(#482ae4cf66)"><path fill="#ffffff" d="M 3.398438 119.050781 L 99.894531 119.050781 L 99.894531 215.550781 L 3.398438 215.550781 Z M 3.398438 119.050781 " fill-opacity="1" fill-rule="nonzero"/></g></g><g clip-path="url(#9be6f7a8c3)"><g clip-path="url(#3185787d12)"><path stroke-linecap="butt" transform="matrix(0.34599, 0, 0, 0.34599, 3.397054, 119.0521)" fill="none" stroke-linejoin="miter" d="M 139.447742 -0.00381206 C 62.426836 -0.00381206 0.00399912 62.430315 0.00399912 139.439931 C 0.00399912 216.460838 62.426836 278.894965 139.447742 278.894965 C 216.457359 278.894965 278.891486 216.460838 278.891486 139.439931 C 278.891486 62.430315 216.457359 -0.00381206 139.447742 -0.00381206 Z M 139.447742 -0.00381206 " stroke="#000000" stroke-width="21.676947" stroke-opacity="1" stroke-miterlimit="4"/></g></g><g clip-path="url(#911f2b504f)"><g clip-path="url(#7169720fc3)"><path fill="url(#c8fc8ec6b1)" d="M 52.253906 151.058594 L 52.253906 155.507812 L 56.746094 155.507812 L 56.746094 151.058594 Z M 52.253906 151.058594 " fill-rule="nonzero"/></g></g><g clip-path="url(#3f46c12ab5)"><g clip-path="url(#b51b1caf7b)"><path fill="url(#8986cab162)" d="M 62.445312 161.320312 L 62.445312 164.640625 L 66.367188 164.640625 L 66.367188 161.320312 Z M 62.445312 161.320312 " fill-rule="nonzero"/></g></g><path fill="#000000" d="M 48.269531 148.488281 C 49.546875 148.898438 50.867188 149.445312 52.207031 150.125 L 50.519531 152.429688 C 45.363281 150.007812 40.617188 149.800781 38.046875 152.367188 C 36.601562 153.816406 36.035156 155.957031 36.253906 158.476562 C 36.371094 159.84375 36.71875 161.324219 37.28125 162.863281 C 35.605469 159.058594 35.042969 155.488281 35.773438 152.742188 C 36.09375 151.535156 36.667969 150.484375 37.507812 149.648438 C 38.144531 149.011719 38.902344 148.527344 39.761719 148.191406 C 42.039062 147.296875 45.011719 147.441406 48.269531 148.488281 Z M 60.910156 160.117188 L 64.140625 159.601562 C 63.523438 158.894531 62.871094 158.199219 62.183594 157.511719 C 60.933594 156.261719 59.644531 155.117188 58.335938 154.085938 L 57.445312 156.242188 L 57.246094 156.722656 C 58.265625 157.554688 59.273438 158.464844 60.253906 159.445312 C 60.476562 159.667969 60.695312 159.890625 60.910156 160.117188 Z M 71.210938 171.425781 C 70.449219 169.050781 69.203125 166.523438 67.53125 164.007812 L 65.742188 166.351562 C 69.523438 172.546875 70.359375 178.617188 67.328125 181.648438 C 65.871094 183.105469 63.710938 183.667969 61.175781 183.441406 C 59.820312 183.316406 58.355469 182.972656 56.832031 182.414062 C 60.636719 184.089844 64.210938 184.65625 66.957031 183.921875 C 68.164062 183.597656 69.210938 183.027344 70.050781 182.1875 C 70.679688 181.558594 71.15625 180.8125 71.492188 179.96875 C 72.402344 177.6875 72.265625 174.703125 71.210938 171.425781 Z M 71.210938 171.425781 " fill-opacity="1" fill-rule="nonzero"/><g clip-path="url(#adca6336f7)"><path fill="#c91a25" d="M 65.578125 161.320312 L 62.445312 161.824219 L 52.398438 163.429688 L 55.664062 155.507812 L 56.746094 152.894531 L 57.867188 150.171875 L 59.433594 146.378906 L 60.246094 144.410156 L 60.535156 143.714844 L 62.128906 139.839844 L 59.527344 143.394531 L 59.050781 144.042969 L 57.710938 145.875 L 55.042969 149.515625 L 53.914062 151.058594 L 52.253906 153.320312 L 41.242188 168.351562 C 42.285156 169.796875 43.460938 171.214844 44.746094 172.59375 L 50.984375 171.769531 L 49.011719 176.628906 C 50.371094 177.757812 51.761719 178.777344 53.15625 179.675781 L 64.621094 164.640625 L 66.367188 162.351562 L 67.371094 161.03125 Z M 72.421875 171.003906 C 74.363281 176.3125 74.207031 181.03125 71.488281 183.742188 C 67.65625 187.582031 59.816406 186.316406 51.976562 181.21875 C 50.730469 180.410156 49.484375 179.503906 48.25 178.503906 C 46.992188 177.480469 45.75 176.363281 44.539062 175.15625 C 43.796875 174.414062 43.09375 173.664062 42.421875 172.898438 C 41.574219 171.9375 40.78125 170.960938 40.046875 169.976562 C 33.671875 161.425781 31.75 152.410156 35.949219 148.203125 C 38.667969 145.492188 43.386719 145.332031 48.691406 147.277344 C 42.042969 144.351562 35.984375 144.214844 32.648438 147.550781 C 27.804688 152.390625 30.28125 162.976562 37.996094 172.78125 C 38.164062 172.992188 38.332031 173.207031 38.507812 173.417969 C 39.632812 174.804688 40.867188 176.171875 42.195312 177.503906 C 43.738281 179.042969 45.332031 180.457031 46.945312 181.722656 L 46.195312 183.574219 L 45.984375 184.097656 L 45.125 186.21875 L 44.058594 188.84375 L 42.902344 191.695312 L 41.660156 194.753906 L 43.746094 192.019531 L 46.398438 188.535156 L 47.5625 187.011719 L 48.773438 185.425781 L 49.117188 184.972656 L 49.9375 183.898438 C 58.824219 189.84375 67.800781 191.394531 72.148438 187.046875 C 75.484375 183.710938 75.347656 177.65625 72.421875 171.003906 Z M 72.421875 171.003906 " fill-opacity="1" fill-rule="nonzero"/></g><g fill="#000000" fill-opacity="1"><g transform="translate(20.006847, 153.503491)"><g><path d="M -4.109375 -9.890625 L -2.9375 -11.796875 L 2.453125 -8.5 C 3.191406 -8.050781 3.625 -7.554688 3.75 -7.015625 C 3.875 -6.484375 3.710938 -5.847656 3.265625 -5.109375 L 1.78125 -2.6875 C 1.332031 -1.945312 0.835938 -1.507812 0.296875 -1.375 C -0.242188 -1.238281 -0.882812 -1.394531 -1.625 -1.84375 L -7.015625 -5.140625 L -5.84375 -7.046875 L -0.453125 -3.75 C -0.0351562 -3.5 0.296875 -3.582031 0.546875 -4 L 1.53125 -5.59375 C 1.78125 -6.007812 1.695312 -6.34375 1.28125 -6.59375 Z M -4.109375 -9.890625 "/></g></g></g><g fill="#000000" fill-opacity="1"><g transform="translate(25.24399, 145.129235)"><g><path d="M 6.125 -5.578125 L 4.390625 -4 L -1.28125 -5.84375 L 2.203125 -2 L 0.546875 -0.5 L -5.28125 -6.90625 L -3.546875 -8.484375 L 2.15625 -6.640625 L -1.34375 -10.484375 L 0.296875 -11.984375 Z M 6.125 -5.578125 "/></g></g></g><g fill="#000000" fill-opacity="1"><g transform="translate(32.685657, 138.779985)"><g><path d="M 4.203125 -2.34375 L 0.328125 -0.1875 L -0.515625 -1.703125 L 0.453125 -2.234375 L -2.0625 -6.765625 L -3.03125 -6.234375 L -3.875 -7.75 L 0 -9.90625 L 0.84375 -8.390625 L -0.125 -7.84375 L 2.390625 -3.3125 L 3.359375 -3.859375 Z M 4.203125 -2.34375 "/></g></g></g><g fill="#000000" fill-opacity="1"><g transform="translate(37.880798, 135.763943)"><g><path d="M 3.5 -3.71875 L 3.84375 -10.109375 L 6.171875 -10.765625 L 5.40625 -1.546875 L 3.03125 -0.875 L -2.515625 -8.28125 L -0.203125 -8.9375 Z M 3.5 -3.71875 "/></g></g></g><g fill="#000000" fill-opacity="1"><g transform="translate(47.000277, 133.299142)"><g><path d="M 7.59375 -0.125 L 0.734375 -0.015625 L 0.578125 -8.671875 L 7.4375 -8.78125 L 7.46875 -7.046875 L 2.84375 -6.96875 L 2.875 -5.296875 L 6.515625 -5.359375 L 6.546875 -3.625 L 2.90625 -3.5625 L 2.9375 -1.78125 L 7.5625 -1.859375 Z M 7.59375 -0.125 "/></g></g></g><g fill="#000000" fill-opacity="1"><g transform="translate(55.530074, 133.17312)"><g><path d="M 2.828125 -8.21875 L 7.859375 -6.9375 C 8.703125 -6.726562 9.265625 -6.382812 9.546875 -5.90625 C 9.835938 -5.425781 9.878906 -4.769531 9.671875 -3.9375 L 9.390625 -2.84375 C 9.222656 -2.1875 8.976562 -1.703125 8.65625 -1.390625 C 8.34375 -1.078125 7.9375 -0.925781 7.4375 -0.9375 L 8.265625 2.09375 L 5.9375 1.5 L 5.203125 -1.359375 L 3.515625 -1.796875 L 2.875 0.71875 L 0.71875 0.171875 Z M 7.515625 -4.484375 C 7.628906 -4.960938 7.441406 -5.265625 6.953125 -5.390625 L 4.5625 -6 L 3.9375 -3.484375 L 6.328125 -2.875 C 6.816406 -2.75 7.117188 -2.921875 7.234375 -3.390625 Z M 7.515625 -4.484375 "/></g></g></g><g fill="#000000" fill-opacity="1"><g transform="translate(64.756944, 135.634195)"><g><path d="M 1.3125 -1.328125 C 3.21875 -0.0976562 4.515625 0.707031 5.203125 1.09375 C 5.367188 1.195312 5.523438 1.226562 5.671875 1.1875 C 5.816406 1.144531 5.9375 1.046875 6.03125 0.890625 L 6.59375 -0.09375 L 4.125 -1.5 C 3.375 -1.925781 2.925781 -2.40625 2.78125 -2.9375 C 2.632812 -3.46875 2.773438 -4.109375 3.203125 -4.859375 L 3.390625 -5.1875 C 3.816406 -5.9375 4.296875 -6.382812 4.828125 -6.53125 C 5.359375 -6.6875 6 -6.550781 6.75 -6.125 L 10.53125 -3.984375 L 9.671875 -2.46875 L 6.328125 -4.359375 C 5.890625 -4.609375 5.550781 -4.519531 5.3125 -4.09375 L 5.1875 -3.875 C 4.9375 -3.445312 5.03125 -3.109375 5.46875 -2.859375 L 7.390625 -1.765625 C 8.085938 -1.367188 8.507812 -0.910156 8.65625 -0.390625 C 8.800781 0.128906 8.675781 0.738281 8.28125 1.4375 L 7.96875 1.984375 C 7.570312 2.671875 7.113281 3.085938 6.59375 3.234375 C 6.070312 3.378906 5.460938 3.253906 4.765625 2.859375 C 4.410156 2.648438 4.035156 2.421875 3.640625 2.171875 L 2.671875 1.578125 C 1.953125 1.117188 1.222656 0.632812 0.484375 0.125 Z M 1.3125 -1.328125 "/></g></g></g><g fill="#000000" fill-opacity="1"><g transform="translate(72.505444, 140.105547)"><g><path d="M 1.609375 1.609375 L -0.09375 -0.09375 L 8.359375 -3.890625 L 10.109375 -2.140625 L 6.296875 6.296875 L 4.578125 4.578125 L 5.296875 3.109375 L 3.109375 0.921875 Z M 4.640625 0.171875 L 6.03125 1.5625 L 7.390625 -1.171875 Z M 4.640625 0.171875 "/></g></g></g><g fill="#000000" fill-opacity="1"><g transform="translate(79.074121, 146.906434)"><g><path d="M 2.984375 1.6875 L 5.265625 5.59375 L 3.765625 6.46875 L 0.375 0.640625 L 7.859375 -3.703125 L 8.96875 -1.78125 Z M 2.984375 1.6875 "/></g></g></g><g fill="#000000" fill-opacity="1"><g transform="translate(10.789561, 182.275058)"><g><path d="M 3.21875 6.859375 L 0.3125 0.671875 L 8.125 -2.984375 L 11.03125 3.203125 L 9.453125 3.9375 L 7.484375 -0.25 L 5.984375 0.453125 L 7.53125 3.75 L 5.984375 4.484375 L 4.4375 1.1875 L 2.8125 1.9375 L 4.78125 6.125 Z M 3.21875 6.859375 "/></g></g></g><g fill="#000000" fill-opacity="1"><g transform="translate(15.282177, 191.239334)"><g><path d="M 3.1875 1.265625 L 5.953125 4.796875 L 4.59375 5.859375 L 0.453125 0.578125 L 7.234375 -4.734375 L 8.609375 -2.984375 Z M 3.1875 1.265625 "/></g></g></g><g fill="#000000" fill-opacity="1"><g transform="translate(21.502017, 198.793655)"><g><path d="M 5.890625 4.765625 L 0.578125 0.46875 L 6 -6.234375 L 11.3125 -1.9375 L 10.21875 -0.59375 L 6.625 -3.5 L 5.578125 -2.21875 L 8.40625 0.0625 L 7.328125 1.40625 L 4.5 -0.875 L 3.375 0.515625 L 6.96875 3.421875 Z M 5.890625 4.765625 "/></g></g></g><g fill="#000000" fill-opacity="1"><g transform="translate(29.469115, 204.888603)"><g><path d="M 6.703125 3.125 C 4.984375 2.46875 3.582031 1.875 2.5 1.34375 C 1.78125 0.988281 1.332031 0.5625 1.15625 0.0625 C 0.976562 -0.4375 1.066406 -1.050781 1.421875 -1.78125 L 3.140625 -5.3125 C 3.515625 -6.09375 3.957031 -6.578125 4.46875 -6.765625 C 4.988281 -6.953125 5.640625 -6.851562 6.421875 -6.46875 L 10.421875 -4.53125 L 9.671875 -2.96875 L 6.125 -4.6875 C 5.675781 -4.90625 5.34375 -4.789062 5.125 -4.34375 L 3.40625 -0.8125 C 3.320312 -0.644531 3.304688 -0.484375 3.359375 -0.328125 C 3.410156 -0.179688 3.515625 -0.0703125 3.671875 0 C 3.828125 0.0820312 3.992188 0.164062 4.171875 0.25 C 4.359375 0.332031 4.554688 0.414062 4.765625 0.5 C 4.972656 0.59375 5.175781 0.6875 5.375 0.78125 C 5.582031 0.875 5.851562 0.984375 6.1875 1.109375 C 6.519531 1.242188 6.9375 1.414062 7.4375 1.625 Z M 6.703125 3.125 "/></g></g></g><g fill="#000000" fill-opacity="1"><g transform="translate(38.426135, 208.959805)"><g><path d="M 4.796875 1.109375 L 2.640625 0.609375 L 4.1875 -6.109375 L 1.671875 -6.6875 L 2.0625 -8.375 L 9.265625 -6.71875 L 8.875 -5.03125 L 6.34375 -5.609375 Z M 4.796875 1.109375 "/></g></g></g><g fill="#000000" fill-opacity="1"><g transform="translate(48.122963, 210.99141)"><g><path d="M 0.609375 -8.640625 L 5.78125 -8.703125 C 6.644531 -8.710938 7.273438 -8.523438 7.671875 -8.140625 C 8.066406 -7.753906 8.273438 -7.128906 8.296875 -6.265625 L 8.3125 -5.15625 C 8.3125 -4.476562 8.195312 -3.945312 7.96875 -3.5625 C 7.75 -3.1875 7.398438 -2.929688 6.921875 -2.796875 L 8.5 -0.125 L 6.09375 -0.078125 L 4.640625 -2.640625 L 2.921875 -2.625 L 2.953125 -0.046875 L 0.734375 -0.015625 Z M 6.078125 -6.234375 C 6.066406 -6.722656 5.816406 -6.96875 5.328125 -6.96875 L 2.859375 -6.9375 L 2.890625 -4.359375 L 5.359375 -4.390625 C 5.847656 -4.390625 6.09375 -4.632812 6.09375 -5.125 Z M 6.078125 -6.234375 "/></g></g></g><g fill="#000000" fill-opacity="1"><g transform="translate(59.102011, 210.42172)"><g><path d="M 4.671875 -1.0625 L 0.359375 -0.078125 L -0.015625 -1.75 L 1.078125 -2 L -0.078125 -7.046875 L -1.171875 -6.796875 L -1.546875 -8.484375 L 2.765625 -9.46875 L 3.140625 -7.78125 L 2.0625 -7.53125 L 3.21875 -2.484375 L 4.296875 -2.734375 Z M 4.671875 -1.0625 "/></g></g></g><g fill="#000000" fill-opacity="1"><g transform="translate(66.169067, 208.727915)"><g><path d="M 6.703125 -3.109375 C 5.085938 -2.222656 3.726562 -1.53125 2.625 -1.03125 C 1.894531 -0.707031 1.28125 -0.640625 0.78125 -0.828125 C 0.289062 -1.023438 -0.117188 -1.492188 -0.453125 -2.234375 L -2.046875 -5.828125 C -2.398438 -6.617188 -2.476562 -7.269531 -2.28125 -7.78125 C -2.082031 -8.289062 -1.585938 -8.722656 -0.796875 -9.078125 L 3.25 -10.875 L 3.953125 -9.296875 L 0.359375 -7.703125 C -0.0976562 -7.492188 -0.226562 -7.164062 -0.03125 -6.71875 L 1.5625 -3.125 C 1.644531 -2.945312 1.757812 -2.828125 1.90625 -2.765625 C 2.0625 -2.710938 2.21875 -2.722656 2.375 -2.796875 C 2.53125 -2.867188 2.695312 -2.945312 2.875 -3.03125 C 3.0625 -3.113281 3.253906 -3.207031 3.453125 -3.3125 C 3.648438 -3.414062 3.851562 -3.515625 4.0625 -3.609375 C 4.269531 -3.703125 4.53125 -3.832031 4.84375 -4 C 5.164062 -4.164062 5.5625 -4.375 6.03125 -4.625 Z M 6.703125 -3.109375 "/></g></g></g><g fill="#000000" fill-opacity="1"><g transform="translate(75.13141, 204.521321)"><g><path d="M 1.8125 -1.390625 L -0.09375 0.078125 L -2.78125 -8.75 L -0.828125 -10.25 L 7.015625 -5.40625 L 5.125 -3.953125 L 3.734375 -4.828125 L 1.296875 -2.953125 Z M 0.765625 -4.5625 L 2.328125 -5.765625 L -0.21875 -7.453125 Z M 0.765625 -4.5625 "/></g></g></g><g fill="#000000" fill-opacity="1"><g transform="translate(83.623574, 197.542916)"><g><path d="M 0.5 -3.390625 L 3.3125 -6.890625 L 4.65625 -5.8125 L 0.453125 -0.578125 L -6.28125 -5.96875 L -4.890625 -7.703125 Z M 0.5 -3.390625 "/></g></g></g><g fill="#000000" fill-opacity="1"><g transform="translate(89.582334, 189.75205)"><g><path d="M -1.40625 -1.203125 C -0.320312 -3.179688 0.390625 -4.53125 0.734375 -5.25 C 0.804688 -5.414062 0.8125 -5.570312 0.75 -5.71875 C 0.695312 -5.863281 0.585938 -5.976562 0.421875 -6.0625 L -0.578125 -6.53125 L -1.78125 -3.984375 C -2.15625 -3.203125 -2.601562 -2.722656 -3.125 -2.546875 C -3.644531 -2.367188 -4.289062 -2.460938 -5.0625 -2.828125 L -5.40625 -2.984375 C -6.1875 -3.359375 -6.671875 -3.800781 -6.859375 -4.3125 C -7.046875 -4.832031 -6.953125 -5.484375 -6.578125 -6.265625 L -4.734375 -10.171875 L -3.15625 -9.421875 L -4.796875 -5.953125 C -5.003906 -5.503906 -4.890625 -5.175781 -4.453125 -4.96875 L -4.21875 -4.859375 C -3.78125 -4.648438 -3.457031 -4.769531 -3.25 -5.21875 L -2.296875 -7.234375 C -1.953125 -7.953125 -1.523438 -8.398438 -1.015625 -8.578125 C -0.515625 -8.753906 0.09375 -8.671875 0.8125 -8.328125 L 1.375 -8.0625 C 2.09375 -7.71875 2.539062 -7.296875 2.71875 -6.796875 C 2.90625 -6.296875 2.828125 -5.6875 2.484375 -4.96875 C 2.304688 -4.582031 2.101562 -4.175781 1.875 -3.75 L 1.375 -2.765625 C 0.96875 -2.023438 0.539062 -1.265625 0.09375 -0.484375 Z M -1.40625 -1.203125 "/></g></g></g><g clip-path="url(#e95170b8f2)"><g clip-path="url(#4198fc77cc)"><path fill="#000000" d="M 12.148438 173.8125 L 15.988281 173.8125 L 15.988281 177.65625 L 12.148438 177.65625 Z M 12.148438 173.8125 " fill-opacity="1" fill-rule="nonzero"/></g></g><g clip-path="url(#43fc6dfad2)"><g clip-path="url(#8f83480fdc)"><path fill="#000000" d="M 87.304688 173.8125 L 91.144531 173.8125 L 91.144531 177.65625 L 87.304688 177.65625 Z M 87.304688 173.8125 " fill-opacity="1" fill-rule="nonzero"/></g></g><g fill="#c91a25" fill-opacity="1"><g transform="translate(123.124295, 156.386224)"><g><path d="M 29.421875 -22.046875 L 16.125 -22.046875 L 16.125 -21.828125 L 16.625 -21.828125 C 18.359375 -21.828125 18.9375 -21.1875 18.9375 -18.171875 L 18.9375 -7.171875 C 18.9375 -2.375 18.328125 0.21875 15 0.21875 C 11.671875 0.21875 11.0625 -2.375 11.0625 -7.171875 L 11.0625 -18.171875 C 11.0625 -21.1875 11.640625 -21.828125 13.359375 -21.828125 L 13.875 -21.828125 L 13.875 -22.046875 L 0.578125 -22.046875 L 0.578125 -21.828125 L 1.09375 -21.828125 C 3.296875 -21.828125 4.03125 -21.1875 4.03125 -18.171875 L 4.03125 -9.84375 C 4.03125 -2.4375 7.65625 0.515625 15 0.515625 C 22.34375 0.515625 25.953125 -2.4375 25.953125 -9.84375 L 25.953125 -18.171875 C 25.953125 -21.1875 26.6875 -21.828125 28.90625 -21.828125 L 29.421875 -21.828125 Z M 29.421875 -22.046875 "/></g></g></g><g fill="#c91a25" fill-opacity="1"><g transform="translate(153.11278, 156.386224)"><g><path d="M 17.015625 -22.046875 L 17.015625 -21.828125 L 17.53125 -21.828125 C 20.734375 -21.828125 22.375 -15.09375 22.375 -11.921875 L 22.375 -3.359375 L 12.109375 -22.046875 L 0.890625 -22.046875 L 0.890625 -21.828125 L 1.40625 -21.828125 C 3.421875 -21.828125 4.484375 -21.28125 4.640625 -18.90625 L 4.671875 -10.125 C 4.671875 -6.953125 3.359375 -0.21875 0.609375 -0.21875 L 0.09375 -0.21875 L 0.09375 0 L 10.578125 0 L 10.578125 -0.21875 L 10.0625 -0.21875 C 6.859375 -0.21875 4.90625 -6.953125 4.90625 -10.125 L 4.90625 -21.15625 L 16.015625 0 L 22.59375 0 L 22.59375 -11.921875 C 22.59375 -15.09375 23.9375 -21.828125 26.6875 -21.828125 L 27.203125 -21.828125 L 27.203125 -22.046875 Z M 17.015625 -22.046875 "/></g></g></g><g fill="#c91a25" fill-opacity="1"><g transform="translate(180.089604, 156.386224)"><g><path d="M 14.453125 -21.828125 L 14.96875 -21.828125 L 14.96875 -22.046875 L 1.03125 -22.046875 L 1.03125 -21.828125 L 1.53125 -21.828125 C 3.75 -21.828125 4.484375 -21.1875 4.484375 -18.171875 L 4.484375 -3.875 C 4.484375 -0.859375 3.75 -0.21875 1.53125 -0.21875 L 1.03125 -0.21875 L 1.03125 0 L 14.96875 0 L 14.96875 -0.21875 L 14.453125 -0.21875 C 12.234375 -0.21875 11.5 -0.859375 11.5 -3.875 L 11.5 -18.171875 C 11.5 -21.1875 12.234375 -21.828125 14.453125 -21.828125 Z M 14.453125 -21.828125 "/></g></g></g><g fill="#c91a25" fill-opacity="1"><g transform="translate(196.077057, 156.386224)"><g><path d="M 18.171875 -22.046875 L 18.171875 -21.828125 C 22.296875 -21.828125 23.015625 -16.53125 21.40625 -12.171875 L 17.75 -2.3125 L 11.59375 -18.328125 C 10.734375 -20.578125 12.046875 -21.828125 14.328125 -21.828125 L 14.328125 -22.046875 L 0.09375 -22.046875 L 0.09375 -21.828125 L 0.421875 -21.828125 C 1.703125 -21.828125 2.953125 -21.46875 3.96875 -18.875 L 11.3125 0 L 17.140625 0 L 22.75 -15.09375 C 24.296875 -19.234375 26.46875 -21.5 28.71875 -21.828125 L 28.71875 -22.046875 Z M 18.171875 -22.046875 "/></g></g></g><g fill="#c91a25" fill-opacity="1"><g transform="translate(224.880106, 156.386224)"><g><path d="M 24.15625 -9.359375 C 22.59375 -4.875 18.390625 -0.25 11.5625 -0.25 L 11.5 -0.25 L 11.5 -10.859375 C 14.875 -10.765625 16.828125 -8.453125 17.34375 -5 L 17.53125 -5 L 17.53125 -17.265625 L 17.34375 -17.265625 C 16.828125 -13.65625 14.875 -11.1875 11.5 -11.09375 L 11.5 -21.796875 L 12.140625 -21.796875 C 17.46875 -21.796875 22.953125 -17.78125 23.875 -12.59375 L 24.0625 -12.59375 L 23.75 -22.046875 L 1.03125 -22.046875 L 1.03125 -21.828125 L 1.53125 -21.828125 C 3.75 -21.828125 4.484375 -21.1875 4.484375 -18.171875 L 4.484375 -3.875 C 4.484375 -0.859375 3.75 -0.21875 1.53125 -0.21875 L 1.03125 -0.21875 L 1.03125 0 L 23.8125 0 L 24.359375 -9.359375 Z M 24.15625 -9.359375 "/></g></g></g><g fill="#c91a25" fill-opacity="1"><g transform="translate(251.216153, 156.386224)"><g><path d="M 27.015625 -4.0625 C 26.6875 -2.3125 25.984375 -1.28125 24.734375 -1.28125 C 23.515625 -1.28125 22.875 -2.28125 22.71875 -5.1875 C 22.4375 -10.421875 18.390625 -11.46875 15.21875 -11.671875 C 22.375 -11.859375 24.15625 -13.875 24.15625 -16.984375 C 24.15625 -20.125 22.171875 -22.046875 14.03125 -22.046875 L 1.03125 -22.046875 L 1.03125 -21.828125 L 1.53125 -21.828125 C 3.75 -21.828125 4.484375 -21.1875 4.484375 -18.171875 L 4.484375 -3.875 C 4.484375 -0.859375 3.75 -0.21875 1.53125 -0.21875 L 1.03125 -0.21875 L 1.03125 0 L 14.96875 0 L 14.96875 -0.21875 L 14.453125 -0.21875 C 12.234375 -0.21875 11.5 -0.859375 11.5 -3.875 L 11.5 -11.671875 L 12.65625 -11.671875 C 14.296875 -11.671875 15.375 -10.984375 15.484375 -6.5 C 15.671875 -0.546875 18.203125 0.515625 21.375 0.515625 C 24.703125 0.515625 26.5625 -0.640625 27.234375 -3.96875 Z M 16.984375 -16.984375 C 16.984375 -13.453125 15.765625 -11.890625 12.109375 -11.890625 L 11.5 -11.890625 L 11.5 -21.828125 L 11.828125 -21.828125 C 15.375 -21.828125 16.984375 -20.34375 16.984375 -16.984375 Z M 16.984375 -16.984375 "/></g></g></g><g fill="#c91a25" fill-opacity="1"><g transform="translate(278.321139, 156.386224)"><g><path d="M 15.953125 -3.234375 C 15.953125 -1.125 14.265625 0.21875 11.09375 0.21875 C 7.6875 0.21875 5.15625 -2.171875 2.8125 -9.140625 L 2.625 -9.140625 L 2.046875 0.15625 L 2.25 0.15625 C 2.4375 -0.515625 2.953125 -0.609375 3.46875 -0.609375 C 4.90625 -0.609375 7.5 0.515625 11.0625 0.515625 C 16.921875 0.515625 20.28125 -2.21875 20.28125 -6.34375 C 20.28125 -10.796875 17.4375 -12.53125 13.421875 -13.875 C 8.328125 -15.21875 6.4375 -16.5625 6.4375 -19.203125 C 6.4375 -21.15625 7.6875 -22.265625 10.578125 -22.265625 C 14.125 -22.265625 16.15625 -20.0625 18.359375 -13.65625 L 18.5625 -13.65625 L 19.15625 -22.203125 L 18.96875 -22.203125 C 18.78125 -21.5 18.140625 -21.40625 17.625 -21.40625 C 16.125 -21.40625 13.75 -22.5625 10.578125 -22.5625 C 6.0625 -22.5625 2.046875 -20.484375 2.046875 -16.15625 C 2.046875 -12.46875 3.625 -10.3125 8.84375 -8.453125 C 12.78125 -7.171875 15.953125 -6.34375 15.953125 -3.234375 Z M 15.953125 -3.234375 "/></g></g></g><g fill="#c91a25" fill-opacity="1"><g transform="translate(300.075612, 156.386224)"><g><path d="M 28.046875 -0.21875 C 26.765625 -0.21875 25.546875 -0.546875 24.484375 -3.171875 L 16.796875 -22.046875 L 9.453125 -22.046875 L 10.828125 -18.59375 L 6.09375 -6.953125 C 4.203125 -2.34375 1.953125 -0.515625 0.125 -0.21875 L 0.125 0 L 10.671875 0 L 10.671875 -0.21875 C 7.015625 -0.21875 6.0625 -4.609375 7.140625 -8.59375 L 14.84375 -8.59375 L 16.796875 -3.71875 C 17.65625 -1.46875 16.34375 -0.21875 14.0625 -0.21875 L 14.0625 0 L 28.359375 0 L 28.359375 -0.21875 Z M 7.25 -8.84375 C 7.34375 -9.203125 7.46875 -9.546875 7.59375 -9.875 L 10.984375 -18.203125 L 14.734375 -8.84375 Z M 7.25 -8.84375 "/></g></g></g><g fill="#c91a25" fill-opacity="1"><g transform="translate(328.558272, 156.386224)"><g><path d="M 22.234375 -10.640625 C 20.703125 -5.515625 16.625 -0.21875 11.5625 -0.21875 L 11.5 -0.21875 L 11.5 -18.171875 C 11.5 -21.1875 12.234375 -21.828125 14.453125 -21.828125 L 14.96875 -21.828125 L 14.96875 -22.046875 L 1.03125 -22.046875 L 1.03125 -21.828125 L 1.53125 -21.828125 C 3.75 -21.828125 4.484375 -21.1875 4.484375 -18.171875 L 4.484375 -3.875 C 4.484375 -0.859375 3.75 -0.21875 1.53125 -0.21875 L 1.03125 -0.21875 L 1.03125 0 L 22.203125 0 L 22.4375 -10.640625 Z M 22.234375 -10.640625 "/></g></g></g><g fill="#c91a25" fill-opacity="1"><g transform="translate(104.678983, 200.636221)"><g><path d="M 24.15625 -9.359375 C 22.59375 -4.875 18.390625 -0.25 11.5625 -0.25 L 11.5 -0.25 L 11.5 -10.859375 C 14.875 -10.765625 16.828125 -8.453125 17.34375 -5 L 17.53125 -5 L 17.53125 -17.265625 L 17.34375 -17.265625 C 16.828125 -13.65625 14.875 -11.1875 11.5 -11.09375 L 11.5 -21.796875 L 12.140625 -21.796875 C 17.46875 -21.796875 22.953125 -17.78125 23.875 -12.59375 L 24.0625 -12.59375 L 23.75 -22.046875 L 1.03125 -22.046875 L 1.03125 -21.828125 L 1.53125 -21.828125 C 3.75 -21.828125 4.484375 -21.1875 4.484375 -18.171875 L 4.484375 -3.875 C 4.484375 -0.859375 3.75 -0.21875 1.53125 -0.21875 L 1.03125 -0.21875 L 1.03125 0 L 23.8125 0 L 24.359375 -9.359375 Z M 24.15625 -9.359375 "/></g></g></g><g fill="#c91a25" fill-opacity="1"><g transform="translate(131.01503, 200.636221)"><g><path d="M 22.234375 -10.640625 C 20.703125 -5.515625 16.625 -0.21875 11.5625 -0.21875 L 11.5 -0.21875 L 11.5 -18.171875 C 11.5 -21.1875 12.234375 -21.828125 14.453125 -21.828125 L 14.96875 -21.828125 L 14.96875 -22.046875 L 1.03125 -22.046875 L 1.03125 -21.828125 L 1.53125 -21.828125 C 3.75 -21.828125 4.484375 -21.1875 4.484375 -18.171875 L 4.484375 -3.875 C 4.484375 -0.859375 3.75 -0.21875 1.53125 -0.21875 L 1.03125 -0.21875 L 1.03125 0 L 22.203125 0 L 22.4375 -10.640625 Z M 22.234375 -10.640625 "/></g></g></g><g fill="#c91a25" fill-opacity="1"><g transform="translate(154.435522, 200.636221)"><g><path d="M 24.15625 -9.359375 C 22.59375 -4.875 18.390625 -0.25 11.5625 -0.25 L 11.5 -0.25 L 11.5 -10.859375 C 14.875 -10.765625 16.828125 -8.453125 17.34375 -5 L 17.53125 -5 L 17.53125 -17.265625 L 17.34375 -17.265625 C 16.828125 -13.65625 14.875 -11.1875 11.5 -11.09375 L 11.5 -21.796875 L 12.140625 -21.796875 C 17.46875 -21.796875 22.953125 -17.78125 23.875 -12.59375 L 24.0625 -12.59375 L 23.75 -22.046875 L 1.03125 -22.046875 L 1.03125 -21.828125 L 1.53125 -21.828125 C 3.75 -21.828125 4.484375 -21.1875 4.484375 -18.171875 L 4.484375 -3.875 C 4.484375 -0.859375 3.75 -0.21875 1.53125 -0.21875 L 1.03125 -0.21875 L 1.03125 0 L 23.8125 0 L 24.359375 -9.359375 Z M 24.15625 -9.359375 "/></g></g></g><g fill="#c91a25" fill-opacity="1"><g transform="translate(180.771569, 200.636221)"><g><path d="M 13.71875 0.515625 C 6.40625 0.515625 1.765625 -2.75 1.765625 -11.125 C 1.765625 -18.96875 7.109375 -22.5625 13.8125 -22.5625 C 16.890625 -22.5625 19.578125 -21.40625 21.015625 -21.40625 C 21.53125 -21.40625 22.171875 -21.5 22.375 -22.203125 L 22.5625 -22.203125 L 21.921875 -12.59375 L 21.734375 -12.59375 C 19.734375 -18.234375 16.953125 -22.265625 13.84375 -22.265625 C 10 -22.265625 9.0625 -18.84375 9.0625 -11.03125 C 9.0625 -2.6875 9.8125 0.21875 13.71875 0.21875 C 16.953125 0.21875 19.328125 -3.8125 21.734375 -9.453125 L 21.921875 -9.453125 L 22.53125 0.15625 L 22.34375 0.15625 C 22.140625 -0.515625 21.625 -0.609375 20.984375 -0.609375 C 19.640625 -0.609375 16.734375 0.515625 13.71875 0.515625 Z M 13.71875 0.515625 "/></g></g></g><g fill="#c91a25" fill-opacity="1"><g transform="translate(205.249358, 200.636221)"><g><path d="M 22.84375 -12.046875 L 23.046875 -12.046875 L 22.71875 -22.046875 L 1.21875 -22.046875 L 0.890625 -12.046875 L 1.09375 -12.046875 C 1.953125 -16.09375 4.265625 -20.765625 8.5 -21.65625 L 8.5 -3.875 C 8.5 -0.859375 7.75 -0.21875 6 -0.21875 L 4.84375 -0.21875 L 4.84375 0 L 19.265625 0 L 19.265625 -0.21875 L 18.109375 -0.21875 C 16.21875 -0.21875 15.484375 -0.859375 15.484375 -3.875 L 15.484375 -21.65625 C 19.671875 -20.734375 21.984375 -16.0625 22.84375 -12.046875 Z M 22.84375 -12.046875 "/></g></g></g><g fill="#c91a25" fill-opacity="1"><g transform="translate(229.182477, 200.636221)"><g><path d="M 27.015625 -4.0625 C 26.6875 -2.3125 25.984375 -1.28125 24.734375 -1.28125 C 23.515625 -1.28125 22.875 -2.28125 22.71875 -5.1875 C 22.4375 -10.421875 18.390625 -11.46875 15.21875 -11.671875 C 22.375 -11.859375 24.15625 -13.875 24.15625 -16.984375 C 24.15625 -20.125 22.171875 -22.046875 14.03125 -22.046875 L 1.03125 -22.046875 L 1.03125 -21.828125 L 1.53125 -21.828125 C 3.75 -21.828125 4.484375 -21.1875 4.484375 -18.171875 L 4.484375 -3.875 C 4.484375 -0.859375 3.75 -0.21875 1.53125 -0.21875 L 1.03125 -0.21875 L 1.03125 0 L 14.96875 0 L 14.96875 -0.21875 L 14.453125 -0.21875 C 12.234375 -0.21875 11.5 -0.859375 11.5 -3.875 L 11.5 -11.671875 L 12.65625 -11.671875 C 14.296875 -11.671875 15.375 -10.984375 15.484375 -6.5 C 15.671875 -0.546875 18.203125 0.515625 21.375 0.515625 C 24.703125 0.515625 26.5625 -0.640625 27.234375 -3.96875 Z M 16.984375 -16.984375 C 16.984375 -13.453125 15.765625 -11.890625 12.109375 -11.890625 L 11.5 -11.890625 L 11.5 -21.828125 L 11.828125 -21.828125 C 15.375 -21.828125 16.984375 -20.34375 16.984375 -16.984375 Z M 16.984375 -16.984375 "/></g></g></g><g fill="#c91a25" fill-opacity="1"><g transform="translate(256.287463, 200.636221)"><g><path d="M 14.453125 -21.828125 L 14.96875 -21.828125 L 14.96875 -22.046875 L 1.03125 -22.046875 L 1.03125 -21.828125 L 1.53125 -21.828125 C 3.75 -21.828125 4.484375 -21.1875 4.484375 -18.171875 L 4.484375 -3.875 C 4.484375 -0.859375 3.75 -0.21875 1.53125 -0.21875 L 1.03125 -0.21875 L 1.03125 0 L 14.96875 0 L 14.96875 -0.21875 L 14.453125 -0.21875 C 12.234375 -0.21875 11.5 -0.859375 11.5 -3.875 L 11.5 -18.171875 C 11.5 -21.1875 12.234375 -21.828125 14.453125 -21.828125 Z M 14.453125 -21.828125 "/></g></g></g><g fill="#c91a25" fill-opacity="1"><g transform="translate(272.274916, 200.636221)"><g><path d="M 13.71875 0.515625 C 6.40625 0.515625 1.765625 -2.75 1.765625 -11.125 C 1.765625 -18.96875 7.109375 -22.5625 13.8125 -22.5625 C 16.890625 -22.5625 19.578125 -21.40625 21.015625 -21.40625 C 21.53125 -21.40625 22.171875 -21.5 22.375 -22.203125 L 22.5625 -22.203125 L 21.921875 -12.59375 L 21.734375 -12.59375 C 19.734375 -18.234375 16.953125 -22.265625 13.84375 -22.265625 C 10 -22.265625 9.0625 -18.84375 9.0625 -11.03125 C 9.0625 -2.6875 9.8125 0.21875 13.71875 0.21875 C 16.953125 0.21875 19.328125 -3.8125 21.734375 -9.453125 L 21.921875 -9.453125 L 22.53125 0.15625 L 22.34375 0.15625 C 22.140625 -0.515625 21.625 -0.609375 20.984375 -0.609375 C 19.640625 -0.609375 16.734375 0.515625 13.71875 0.515625 Z M 13.71875 0.515625 "/></g></g></g><g fill="#c91a25" fill-opacity="1"><g transform="translate(296.752717, 200.636221)"><g><path d="M 28.046875 -0.21875 C 26.765625 -0.21875 25.546875 -0.546875 24.484375 -3.171875 L 16.796875 -22.046875 L 9.453125 -22.046875 L 10.828125 -18.59375 L 6.09375 -6.953125 C 4.203125 -2.34375 1.953125 -0.515625 0.125 -0.21875 L 0.125 0 L 10.671875 0 L 10.671875 -0.21875 C 7.015625 -0.21875 6.0625 -4.609375 7.140625 -8.59375 L 14.84375 -8.59375 L 16.796875 -3.71875 C 17.65625 -1.46875 16.34375 -0.21875 14.0625 -0.21875 L 14.0625 0 L 28.359375 0 L 28.359375 -0.21875 Z M 7.25 -8.84375 C 7.34375 -9.203125 7.46875 -9.546875 7.59375 -9.875 L 10.984375 -18.203125 L 14.734375 -8.84375 Z M 7.25 -8.84375 "/></g></g></g><g fill="#c91a25" fill-opacity="1"><g transform="translate(325.235366, 200.636221)"><g><path d="M 22.234375 -10.640625 C 20.703125 -5.515625 16.625 -0.21875 11.5625 -0.21875 L 11.5 -0.21875 L 11.5 -18.171875 C 11.5 -21.1875 12.234375 -21.828125 14.453125 -21.828125 L 14.96875 -21.828125 L 14.96875 -22.046875 L 1.03125 -22.046875 L 1.03125 -21.828125 L 1.53125 -21.828125 C 3.75 -21.828125 4.484375 -21.1875 4.484375 -18.171875 L 4.484375 -3.875 C 4.484375 -0.859375 3.75 -0.21875 1.53125 -0.21875 L 1.03125 -0.21875 L 1.03125 0 L 22.203125 0 L 22.4375 -10.640625 Z M 22.234375 -10.640625 "/></g></g></g><g fill="#c91a25" fill-opacity="1"><g transform="translate(348.655858, 200.636221)"><g><path d="M 15.953125 -3.234375 C 15.953125 -1.125 14.265625 0.21875 11.09375 0.21875 C 7.6875 0.21875 5.15625 -2.171875 2.8125 -9.140625 L 2.625 -9.140625 L 2.046875 0.15625 L 2.25 0.15625 C 2.4375 -0.515625 2.953125 -0.609375 3.46875 -0.609375 C 4.90625 -0.609375 7.5 0.515625 11.0625 0.515625 C 16.921875 0.515625 20.28125 -2.21875 20.28125 -6.34375 C 20.28125 -10.796875 17.4375 -12.53125 13.421875 -13.875 C 8.328125 -15.21875 6.4375 -16.5625 6.4375 -19.203125 C 6.4375 -21.15625 7.6875 -22.265625 10.578125 -22.265625 C 14.125 -22.265625 16.15625 -20.0625 18.359375 -13.65625 L 18.5625 -13.65625 L 19.15625 -22.203125 L 18.96875 -22.203125 C 18.78125 -21.5 18.140625 -21.40625 17.625 -21.40625 C 16.125 -21.40625 13.75 -22.5625 10.578125 -22.5625 C 6.0625 -22.5625 2.046875 -20.484375 2.046875 -16.15625 C 2.046875 -12.46875 3.625 -10.3125 8.84375 -8.453125 C 12.78125 -7.171875 15.953125 -6.34375 15.953125 -3.234375 Z M 15.953125 -3.234375 "/></g></g></g></svg>