<svg xmlns="http://www.w3.org/2000/svg" xmlns:xlink="http://www.w3.org/1999/xlink" width="500" zoomAndPan="magnify" viewBox="0 0 375 374.999991" height="500" preserveAspectRatio="xMidYMid meet" version="1.0"><defs><g/></defs><g fill="#c91a25" fill-opacity="1"><g transform="translate(37.324221, 137.556099)"><g><path d="M 38.59375 -28.921875 L 21.15625 -28.921875 L 21.15625 -28.640625 L 21.828125 -28.640625 C 24.09375 -28.640625 24.84375 -27.796875 24.84375 -23.84375 L 24.84375 -9.421875 C 24.84375 -3.109375 24.046875 0.296875 19.671875 0.296875 C 15.3125 0.296875 14.5 -3.109375 14.5 -9.421875 L 14.5 -23.84375 C 14.5 -27.796875 15.265625 -28.640625 17.53125 -28.640625 L 18.203125 -28.640625 L 18.203125 -28.921875 L 0.75 -28.921875 L 0.75 -28.640625 L 1.421875 -28.640625 C 4.328125 -28.640625 5.296875 -27.796875 5.296875 -23.84375 L 5.296875 -12.90625 C 5.296875 -3.203125 10.046875 0.671875 19.671875 0.671875 C 29.3125 0.671875 34.0625 -3.203125 34.0625 -12.90625 L 34.0625 -23.84375 C 34.0625 -27.796875 35.03125 -28.640625 37.921875 -28.640625 L 38.59375 -28.640625 Z M 38.59375 -28.921875 "/></g></g></g><g fill="#c91a25" fill-opacity="1"><g transform="translate(76.680061, 137.556099)"><g><path d="M 22.328125 -28.921875 L 22.328125 -28.640625 L 23 -28.640625 C 27.203125 -28.640625 29.34375 -19.796875 29.34375 -15.640625 L 29.34375 -4.421875 L 15.890625 -28.921875 L 1.171875 -28.921875 L 1.171875 -28.640625 L 1.84375 -28.640625 C 4.5 -28.640625 5.890625 -27.921875 6.09375 -24.8125 L 6.140625 -13.28125 C 6.140625 -9.125 4.421875 -0.296875 0.796875 -0.296875 L 0.125 -0.296875 L 0.125 0 L 13.875 0 L 13.875 -0.296875 L 13.203125 -0.296875 C 9 -0.296875 6.4375 -9.125 6.4375 -13.28125 L 6.4375 -27.75 L 21.015625 0 L 29.640625 0 L 29.640625 -15.640625 C 29.640625 -19.796875 31.40625 -28.640625 35.03125 -28.640625 L 35.703125 -28.640625 L 35.703125 -28.921875 Z M 22.328125 -28.921875 "/></g></g></g><g fill="#c91a25" fill-opacity="1"><g transform="translate(112.083501, 137.556099)"><g><path d="M 18.96875 -28.640625 L 19.640625 -28.640625 L 19.640625 -28.921875 L 1.34375 -28.921875 L 1.34375 -28.640625 L 2.015625 -28.640625 C 4.921875 -28.640625 5.890625 -27.796875 5.890625 -23.84375 L 5.890625 -5.09375 C 5.890625 -1.140625 4.921875 -0.296875 2.015625 -0.296875 L 1.34375 -0.296875 L 1.34375 0 L 19.640625 0 L 19.640625 -0.296875 L 18.96875 -0.296875 C 16.0625 -0.296875 15.09375 -1.140625 15.09375 -5.09375 L 15.09375 -23.84375 C 15.09375 -27.796875 16.0625 -28.640625 18.96875 -28.640625 Z M 18.96875 -28.640625 "/></g></g></g><g fill="#c91a25" fill-opacity="1"><g transform="translate(133.06488, 137.556099)"><g><path d="M 23.84375 -28.921875 L 23.84375 -28.640625 C 29.265625 -28.640625 30.1875 -21.703125 28.09375 -15.984375 L 23.296875 -3.03125 L 15.21875 -24.046875 C 14.078125 -27 15.8125 -28.640625 18.796875 -28.640625 L 18.796875 -28.921875 L 0.125 -28.921875 L 0.125 -28.640625 L 0.546875 -28.640625 C 2.234375 -28.640625 3.875 -28.171875 5.21875 -24.765625 L 14.84375 0 L 22.5 0 L 29.859375 -19.796875 C 31.875 -25.234375 34.734375 -28.21875 37.671875 -28.640625 L 37.671875 -28.921875 Z M 23.84375 -28.921875 "/></g></g></g><g fill="#c91a25" fill-opacity="1"><g transform="translate(170.864987, 137.556099)"><g><path d="M 31.703125 -12.28125 C 29.640625 -6.390625 24.140625 -0.34375 15.171875 -0.34375 L 15.09375 -0.34375 L 15.09375 -14.25 C 19.515625 -14.125 22.078125 -11.09375 22.75 -6.5625 L 23 -6.5625 L 23 -22.65625 L 22.75 -22.65625 C 22.078125 -17.90625 19.515625 -14.671875 15.09375 -14.546875 L 15.09375 -28.59375 L 15.9375 -28.59375 C 22.921875 -28.59375 30.109375 -23.34375 31.328125 -16.53125 L 31.578125 -16.53125 L 31.15625 -28.921875 L 1.34375 -28.921875 L 1.34375 -28.640625 L 2.015625 -28.640625 C 4.921875 -28.640625 5.890625 -27.796875 5.890625 -23.84375 L 5.890625 -5.09375 C 5.890625 -1.140625 4.921875 -0.296875 2.015625 -0.296875 L 1.34375 -0.296875 L 1.34375 0 L 31.234375 0 L 31.953125 -12.28125 Z M 31.703125 -12.28125 "/></g></g></g><g fill="#c91a25" fill-opacity="1"><g transform="translate(205.427493, 137.556099)"><g><path d="M 35.453125 -5.34375 C 35.03125 -3.03125 34.09375 -1.6875 32.453125 -1.6875 C 30.859375 -1.6875 30.015625 -2.984375 29.8125 -6.8125 C 29.4375 -13.671875 24.140625 -15.046875 19.96875 -15.3125 C 29.34375 -15.5625 31.703125 -18.203125 31.703125 -22.28125 C 31.703125 -26.40625 29.09375 -28.921875 18.421875 -28.921875 L 1.34375 -28.921875 L 1.34375 -28.640625 L 2.015625 -28.640625 C 4.921875 -28.640625 5.890625 -27.796875 5.890625 -23.84375 L 5.890625 -5.09375 C 5.890625 -1.140625 4.921875 -0.296875 2.015625 -0.296875 L 1.34375 -0.296875 L 1.34375 0 L 19.640625 0 L 19.640625 -0.296875 L 18.96875 -0.296875 C 16.0625 -0.296875 15.09375 -1.140625 15.09375 -5.09375 L 15.09375 -15.3125 L 16.609375 -15.3125 C 18.75 -15.3125 20.1875 -14.421875 20.3125 -8.53125 C 20.5625 -0.71875 23.875 0.671875 28.046875 0.671875 C 32.421875 0.671875 34.859375 -0.84375 35.734375 -5.21875 Z M 22.28125 -22.28125 C 22.28125 -17.65625 20.6875 -15.59375 15.890625 -15.59375 L 15.09375 -15.59375 L 15.09375 -28.640625 L 15.515625 -28.640625 C 20.1875 -28.640625 22.28125 -26.703125 22.28125 -22.28125 Z M 22.28125 -22.28125 "/></g></g></g><g fill="#c91a25" fill-opacity="1"><g transform="translate(240.999127, 137.556099)"><g><path d="M 20.9375 -4.25 C 20.9375 -1.46875 18.703125 0.296875 14.546875 0.296875 C 10.09375 0.296875 6.765625 -2.859375 3.703125 -11.984375 L 3.453125 -11.984375 L 2.6875 0.203125 L 2.9375 0.203125 C 3.203125 -0.671875 3.875 -0.796875 4.546875 -0.796875 C 6.4375 -0.796875 9.84375 0.671875 14.5 0.671875 C 22.203125 0.671875 26.609375 -2.90625 26.609375 -8.328125 C 26.609375 -14.171875 22.875 -16.4375 17.625 -18.203125 C 10.9375 -19.96875 8.453125 -21.734375 8.453125 -25.1875 C 8.453125 -27.75 10.09375 -29.21875 13.875 -29.21875 C 18.546875 -29.21875 21.1875 -26.328125 24.09375 -17.90625 L 24.34375 -17.90625 L 25.140625 -29.140625 L 24.890625 -29.140625 C 24.640625 -28.21875 23.796875 -28.09375 23.125 -28.09375 C 21.15625 -28.09375 18.03125 -29.59375 13.875 -29.59375 C 7.953125 -29.59375 2.6875 -26.875 2.6875 -21.1875 C 2.6875 -16.359375 4.75 -13.546875 11.609375 -11.09375 C 16.78125 -9.421875 20.9375 -8.328125 20.9375 -4.25 Z M 20.9375 -4.25 "/></g></g></g><g fill="#c91a25" fill-opacity="1"><g transform="translate(269.548929, 137.556099)"><g><path d="M 36.796875 -0.296875 C 35.109375 -0.296875 33.515625 -0.71875 32.125 -4.15625 L 22.03125 -28.921875 L 12.40625 -28.921875 L 14.21875 -24.390625 L 7.984375 -9.125 C 5.515625 -3.0625 2.5625 -0.671875 0.171875 -0.296875 L 0.171875 0 L 14 0 L 14 -0.296875 C 9.203125 -0.296875 7.953125 -6.0625 9.375 -11.265625 L 19.46875 -11.265625 L 22.03125 -4.875 C 23.171875 -1.9375 21.4375 -0.296875 18.453125 -0.296875 L 18.453125 0 L 37.21875 0 L 37.21875 -0.296875 Z M 9.5 -11.609375 C 9.625 -12.0625 9.796875 -12.53125 9.96875 -12.953125 L 14.421875 -23.875 L 19.34375 -11.609375 Z M 9.5 -11.609375 "/></g></g></g><g fill="#c91a25" fill-opacity="1"><g transform="translate(306.928558, 137.556099)"><g><path d="M 29.1875 -13.953125 C 27.15625 -7.234375 21.828125 -0.296875 15.171875 -0.296875 L 15.09375 -0.296875 L 15.09375 -23.84375 C 15.09375 -27.796875 16.0625 -28.640625 18.96875 -28.640625 L 19.640625 -28.640625 L 19.640625 -28.921875 L 1.34375 -28.921875 L 1.34375 -28.640625 L 2.015625 -28.640625 C 4.921875 -28.640625 5.890625 -27.796875 5.890625 -23.84375 L 5.890625 -5.09375 C 5.890625 -1.140625 4.921875 -0.296875 2.015625 -0.296875 L 1.34375 -0.296875 L 1.34375 0 L 29.140625 0 L 29.4375 -13.953125 Z M 29.1875 -13.953125 "/></g></g></g><g fill="#c91a25" fill-opacity="1"><g transform="translate(13.125004, 196.056095)"><g><path d="M 31.703125 -12.28125 C 29.640625 -6.390625 24.140625 -0.34375 15.171875 -0.34375 L 15.09375 -0.34375 L 15.09375 -14.25 C 19.515625 -14.125 22.078125 -11.09375 22.75 -6.5625 L 23 -6.5625 L 23 -22.65625 L 22.75 -22.65625 C 22.078125 -17.90625 19.515625 -14.671875 15.09375 -14.546875 L 15.09375 -28.59375 L 15.9375 -28.59375 C 22.921875 -28.59375 30.109375 -23.34375 31.328125 -16.53125 L 31.578125 -16.53125 L 31.15625 -28.921875 L 1.34375 -28.921875 L 1.34375 -28.640625 L 2.015625 -28.640625 C 4.921875 -28.640625 5.890625 -27.796875 5.890625 -23.84375 L 5.890625 -5.09375 C 5.890625 -1.140625 4.921875 -0.296875 2.015625 -0.296875 L 1.34375 -0.296875 L 1.34375 0 L 31.234375 0 L 31.953125 -12.28125 Z M 31.703125 -12.28125 "/></g></g></g><g fill="#c91a25" fill-opacity="1"><g transform="translate(47.687509, 196.056095)"><g><path d="M 29.1875 -13.953125 C 27.15625 -7.234375 21.828125 -0.296875 15.171875 -0.296875 L 15.09375 -0.296875 L 15.09375 -23.84375 C 15.09375 -27.796875 16.0625 -28.640625 18.96875 -28.640625 L 19.640625 -28.640625 L 19.640625 -28.921875 L 1.34375 -28.921875 L 1.34375 -28.640625 L 2.015625 -28.640625 C 4.921875 -28.640625 5.890625 -27.796875 5.890625 -23.84375 L 5.890625 -5.09375 C 5.890625 -1.140625 4.921875 -0.296875 2.015625 -0.296875 L 1.34375 -0.296875 L 1.34375 0 L 29.140625 0 L 29.4375 -13.953125 Z M 29.1875 -13.953125 "/></g></g></g><g fill="#c91a25" fill-opacity="1"><g transform="translate(78.423752, 196.056095)"><g><path d="M 31.703125 -12.28125 C 29.640625 -6.390625 24.140625 -0.34375 15.171875 -0.34375 L 15.09375 -0.34375 L 15.09375 -14.25 C 19.515625 -14.125 22.078125 -11.09375 22.75 -6.5625 L 23 -6.5625 L 23 -22.65625 L 22.75 -22.65625 C 22.078125 -17.90625 19.515625 -14.671875 15.09375 -14.546875 L 15.09375 -28.59375 L 15.9375 -28.59375 C 22.921875 -28.59375 30.109375 -23.34375 31.328125 -16.53125 L 31.578125 -16.53125 L 31.15625 -28.921875 L 1.34375 -28.921875 L 1.34375 -28.640625 L 2.015625 -28.640625 C 4.921875 -28.640625 5.890625 -27.796875 5.890625 -23.84375 L 5.890625 -5.09375 C 5.890625 -1.140625 4.921875 -0.296875 2.015625 -0.296875 L 1.34375 -0.296875 L 1.34375 0 L 31.234375 0 L 31.953125 -12.28125 Z M 31.703125 -12.28125 "/></g></g></g><g fill="#c91a25" fill-opacity="1"><g transform="translate(112.986257, 196.056095)"><g><path d="M 18 0.671875 C 8.40625 0.671875 2.3125 -3.609375 2.3125 -14.59375 C 2.3125 -24.890625 9.328125 -29.59375 18.125 -29.59375 C 22.15625 -29.59375 25.6875 -28.09375 27.578125 -28.09375 C 28.25 -28.09375 29.09375 -28.21875 29.34375 -29.140625 L 29.59375 -29.140625 L 28.765625 -16.53125 L 28.5 -16.53125 C 25.90625 -23.921875 22.25 -29.21875 18.171875 -29.21875 C 13.125 -29.21875 11.90625 -24.71875 11.90625 -14.46875 C 11.90625 -3.53125 12.859375 0.296875 18 0.296875 C 22.25 0.296875 25.359375 -5 28.5 -12.40625 L 28.765625 -12.40625 L 29.5625 0.203125 L 29.3125 0.203125 C 29.046875 -0.671875 28.375 -0.796875 27.546875 -0.796875 C 25.78125 -0.796875 21.953125 0.671875 18 0.671875 Z M 18 0.671875 "/></g></g></g><g fill="#c91a25" fill-opacity="1"><g transform="translate(145.11005, 196.056095)"><g><path d="M 29.984375 -15.8125 L 30.234375 -15.8125 L 29.8125 -28.921875 L 1.59375 -28.921875 L 1.171875 -15.8125 L 1.421875 -15.8125 C 2.5625 -21.109375 5.59375 -27.25 11.140625 -28.421875 L 11.140625 -5.09375 C 11.140625 -1.140625 10.171875 -0.296875 7.859375 -0.296875 L 6.34375 -0.296875 L 6.34375 0 L 25.265625 0 L 25.265625 -0.296875 L 23.75 -0.296875 C 21.28125 -0.296875 20.3125 -1.140625 20.3125 -5.09375 L 20.3125 -28.421875 C 25.8125 -27.203125 28.84375 -21.0625 29.984375 -15.8125 Z M 29.984375 -15.8125 "/></g></g></g><g fill="#c91a25" fill-opacity="1"><g transform="translate(176.519044, 196.056095)"><g><path d="M 35.453125 -5.34375 C 35.03125 -3.03125 34.09375 -1.6875 32.453125 -1.6875 C 30.859375 -1.6875 30.015625 -2.984375 29.8125 -6.8125 C 29.4375 -13.671875 24.140625 -15.046875 19.96875 -15.3125 C 29.34375 -15.5625 31.703125 -18.203125 31.703125 -22.28125 C 31.703125 -26.40625 29.09375 -28.921875 18.421875 -28.921875 L 1.34375 -28.921875 L 1.34375 -28.640625 L 2.015625 -28.640625 C 4.921875 -28.640625 5.890625 -27.796875 5.890625 -23.84375 L 5.890625 -5.09375 C 5.890625 -1.140625 4.921875 -0.296875 2.015625 -0.296875 L 1.34375 -0.296875 L 1.34375 0 L 19.640625 0 L 19.640625 -0.296875 L 18.96875 -0.296875 C 16.0625 -0.296875 15.09375 -1.140625 15.09375 -5.09375 L 15.09375 -15.3125 L 16.609375 -15.3125 C 18.75 -15.3125 20.1875 -14.421875 20.3125 -8.53125 C 20.5625 -0.71875 23.875 0.671875 28.046875 0.671875 C 32.421875 0.671875 34.859375 -0.84375 35.734375 -5.21875 Z M 22.28125 -22.28125 C 22.28125 -17.65625 20.6875 -15.59375 15.890625 -15.59375 L 15.09375 -15.59375 L 15.09375 -28.640625 L 15.515625 -28.640625 C 20.1875 -28.640625 22.28125 -26.703125 22.28125 -22.28125 Z M 22.28125 -22.28125 "/></g></g></g><g fill="#c91a25" fill-opacity="1"><g transform="translate(212.09069, 196.056095)"><g><path d="M 18.96875 -28.640625 L 19.640625 -28.640625 L 19.640625 -28.921875 L 1.34375 -28.921875 L 1.34375 -28.640625 L 2.015625 -28.640625 C 4.921875 -28.640625 5.890625 -27.796875 5.890625 -23.84375 L 5.890625 -5.09375 C 5.890625 -1.140625 4.921875 -0.296875 2.015625 -0.296875 L 1.34375 -0.296875 L 1.34375 0 L 19.640625 0 L 19.640625 -0.296875 L 18.96875 -0.296875 C 16.0625 -0.296875 15.09375 -1.140625 15.09375 -5.09375 L 15.09375 -23.84375 C 15.09375 -27.796875 16.0625 -28.640625 18.96875 -28.640625 Z M 18.96875 -28.640625 "/></g></g></g><g fill="#c91a25" fill-opacity="1"><g transform="translate(233.072058, 196.056095)"><g><path d="M 18 0.671875 C 8.40625 0.671875 2.3125 -3.609375 2.3125 -14.59375 C 2.3125 -24.890625 9.328125 -29.59375 18.125 -29.59375 C 22.15625 -29.59375 25.6875 -28.09375 27.578125 -28.09375 C 28.25 -28.09375 29.09375 -28.21875 29.34375 -29.140625 L 29.59375 -29.140625 L 28.765625 -16.53125 L 28.5 -16.53125 C 25.90625 -23.921875 22.25 -29.21875 18.171875 -29.21875 C 13.125 -29.21875 11.90625 -24.71875 11.90625 -14.46875 C 11.90625 -3.53125 12.859375 0.296875 18 0.296875 C 22.25 0.296875 25.359375 -5 28.5 -12.40625 L 28.765625 -12.40625 L 29.5625 0.203125 L 29.3125 0.203125 C 29.046875 -0.671875 28.375 -0.796875 27.546875 -0.796875 C 25.78125 -0.796875 21.953125 0.671875 18 0.671875 Z M 18 0.671875 "/></g></g></g><g fill="#c91a25" fill-opacity="1"><g transform="translate(265.19585, 196.056095)"><g><path d="M 36.796875 -0.296875 C 35.109375 -0.296875 33.515625 -0.71875 32.125 -4.15625 L 22.03125 -28.921875 L 12.40625 -28.921875 L 14.21875 -24.390625 L 7.984375 -9.125 C 5.515625 -3.0625 2.5625 -0.671875 0.171875 -0.296875 L 0.171875 0 L 14 0 L 14 -0.296875 C 9.203125 -0.296875 7.953125 -6.0625 9.375 -11.265625 L 19.46875 -11.265625 L 22.03125 -4.875 C 23.171875 -1.9375 21.4375 -0.296875 18.453125 -0.296875 L 18.453125 0 L 37.21875 0 L 37.21875 -0.296875 Z M 9.5 -11.609375 C 9.625 -12.0625 9.796875 -12.53125 9.96875 -12.953125 L 14.421875 -23.875 L 19.34375 -11.609375 Z M 9.5 -11.609375 "/></g></g></g><g fill="#c91a25" fill-opacity="1"><g transform="translate(302.575502, 196.056095)"><g><path d="M 29.1875 -13.953125 C 27.15625 -7.234375 21.828125 -0.296875 15.171875 -0.296875 L 15.09375 -0.296875 L 15.09375 -23.84375 C 15.09375 -27.796875 16.0625 -28.640625 18.96875 -28.640625 L 19.640625 -28.640625 L 19.640625 -28.921875 L 1.34375 -28.921875 L 1.34375 -28.640625 L 2.015625 -28.640625 C 4.921875 -28.640625 5.890625 -27.796875 5.890625 -23.84375 L 5.890625 -5.09375 C 5.890625 -1.140625 4.921875 -0.296875 2.015625 -0.296875 L 1.34375 -0.296875 L 1.34375 0 L 29.140625 0 L 29.4375 -13.953125 Z M 29.1875 -13.953125 "/></g></g></g><g fill="#c91a25" fill-opacity="1"><g transform="translate(333.311744, 196.056095)"><g><path d="M 20.9375 -4.25 C 20.9375 -1.46875 18.703125 0.296875 14.546875 0.296875 C 10.09375 0.296875 6.765625 -2.859375 3.703125 -11.984375 L 3.453125 -11.984375 L 2.6875 0.203125 L 2.9375 0.203125 C 3.203125 -0.671875 3.875 -0.796875 4.546875 -0.796875 C 6.4375 -0.796875 9.84375 0.671875 14.5 0.671875 C 22.203125 0.671875 26.609375 -2.90625 26.609375 -8.328125 C 26.609375 -14.171875 22.875 -16.4375 17.625 -18.203125 C 10.9375 -19.96875 8.453125 -21.734375 8.453125 -25.1875 C 8.453125 -27.75 10.09375 -29.21875 13.875 -29.21875 C 18.546875 -29.21875 21.1875 -26.328125 24.09375 -17.90625 L 24.34375 -17.90625 L 25.140625 -29.140625 L 24.890625 -29.140625 C 24.640625 -28.21875 23.796875 -28.09375 23.125 -28.09375 C 21.15625 -28.09375 18.03125 -29.59375 13.875 -29.59375 C 7.953125 -29.59375 2.6875 -26.875 2.6875 -21.1875 C 2.6875 -16.359375 4.75 -13.546875 11.609375 -11.09375 C 16.78125 -9.421875 20.9375 -8.328125 20.9375 -4.25 Z M 20.9375 -4.25 "/></g></g></g></svg>