<svg xmlns="http://www.w3.org/2000/svg" xmlns:xlink="http://www.w3.org/1999/xlink" width="500" zoomAndPan="magnify" viewBox="0 0 375 374.999991" height="500" preserveAspectRatio="xMidYMid meet" version="1.0"><defs><g/><clipPath id="5b3deaac6f"><path d="M 74.972656 74.972656 L 300.027344 74.972656 L 300.027344 300.027344 L 74.972656 300.027344 Z M 74.972656 74.972656 " clip-rule="nonzero"/></clipPath><clipPath id="7fd5a21184"><path d="M 187.5 74.972656 C 125.351562 74.972656 74.972656 125.351562 74.972656 187.5 C 74.972656 249.648438 125.351562 300.027344 187.5 300.027344 C 249.648438 300.027344 300.027344 249.648438 300.027344 187.5 C 300.027344 125.351562 249.648438 74.972656 187.5 74.972656 Z M 187.5 74.972656 " clip-rule="nonzero"/></clipPath><clipPath id="872da067ee"><path d="M 74.972656 74.972656 L 299.972656 74.972656 L 299.972656 299.972656 L 74.972656 299.972656 Z M 74.972656 74.972656 " clip-rule="nonzero"/></clipPath><clipPath id="4b73ba2485"><path d="M 187.496094 74.972656 C 125.351562 74.972656 74.972656 125.351562 74.972656 187.496094 C 74.972656 249.640625 125.351562 300.019531 187.496094 300.019531 C 249.640625 300.019531 300.019531 249.640625 300.019531 187.496094 C 300.019531 125.351562 249.640625 74.972656 187.496094 74.972656 Z M 187.496094 74.972656 " clip-rule="nonzero"/></clipPath><clipPath id="0ce7eea8d5"><path d="M 80.265625 80.265625 L 294.734375 80.265625 L 294.734375 294.734375 L 80.265625 294.734375 Z M 80.265625 80.265625 " clip-rule="nonzero"/></clipPath><clipPath id="b8577cc4e2"><path d="M 187.5 80.265625 C 128.273438 80.265625 80.265625 128.273438 80.265625 187.5 C 80.265625 246.726562 128.273438 294.734375 187.5 294.734375 C 246.726562 294.734375 294.734375 246.726562 294.734375 187.5 C 294.734375 128.273438 246.726562 80.265625 187.5 80.265625 Z M 187.5 80.265625 " clip-rule="nonzero"/></clipPath><clipPath id="4ecd534eb2"><path d="M 80.265625 80.265625 L 294.730469 80.265625 L 294.730469 294.730469 L 80.265625 294.730469 Z M 80.265625 80.265625 " clip-rule="nonzero"/></clipPath><clipPath id="057850085b"><path d="M 187.496094 80.265625 C 128.273438 80.265625 80.265625 128.273438 80.265625 187.496094 C 80.265625 246.71875 128.273438 294.730469 187.496094 294.730469 C 246.71875 294.730469 294.730469 246.71875 294.730469 187.496094 C 294.730469 128.273438 246.71875 80.265625 187.496094 80.265625 Z M 187.496094 80.265625 " clip-rule="nonzero"/></clipPath><clipPath id="2a9b980674"><path d="M 188 151 L 199 151 L 199 162 L 188 162 Z M 188 151 " clip-rule="nonzero"/></clipPath><clipPath id="1ae770982b"><path d="M 192.535156 151.394531 C 194.628906 152.621094 196.734375 153.980469 198.832031 155.476562 L 196.429688 161.285156 C 193.90625 159.453125 191.371094 157.824219 188.851562 156.425781 Z M 192.535156 151.394531 " clip-rule="nonzero"/></clipPath><linearGradient x1="243.739" gradientTransform="matrix(0.221911, 0, 0, 0.221911, 139.753083, 126.469207)" y1="156.900021" x2="243.739" gradientUnits="userSpaceOnUse" y2="112.330016" id="63ee205452"><stop stop-opacity="1" stop-color="rgb(94.500732%, 38.404846%, 12.498474%)" offset="0"/><stop stop-opacity="1" stop-color="rgb(94.519043%, 38.528442%, 12.463379%)" offset="0.0078125"/><stop stop-opacity="1" stop-color="rgb(94.555664%, 38.775635%, 12.391663%)" offset="0.015625"/><stop stop-opacity="1" stop-color="rgb(94.592285%, 39.024353%, 12.321472%)" offset="0.0234375"/><stop stop-opacity="1" stop-color="rgb(94.628906%, 39.273071%, 12.251282%)" offset="0.03125"/><stop stop-opacity="1" stop-color="rgb(94.665527%, 39.52179%, 12.181091%)" offset="0.0390625"/><stop stop-opacity="1" stop-color="rgb(94.702148%, 39.770508%, 12.110901%)" offset="0.046875"/><stop stop-opacity="1" stop-color="rgb(94.73877%, 40.0177%, 12.04071%)" offset="0.0546875"/><stop stop-opacity="1" stop-color="rgb(94.775391%, 40.266418%, 11.97052%)" offset="0.0625"/><stop stop-opacity="1" stop-color="rgb(94.812012%, 40.515137%, 11.90033%)" offset="0.0703125"/><stop stop-opacity="1" stop-color="rgb(94.848633%, 40.763855%, 11.830139%)" offset="0.078125"/><stop stop-opacity="1" stop-color="rgb(94.885254%, 41.011047%, 11.759949%)" offset="0.0859375"/><stop stop-opacity="1" stop-color="rgb(94.921875%, 41.259766%, 11.689758%)" offset="0.09375"/><stop stop-opacity="1" stop-color="rgb(94.958496%, 41.508484%, 11.619568%)" offset="0.101563"/><stop stop-opacity="1" stop-color="rgb(94.995117%, 41.757202%, 11.549377%)" offset="0.109375"/><stop stop-opacity="1" stop-color="rgb(95.031738%, 42.00592%, 11.479187%)" offset="0.117188"/><stop stop-opacity="1" stop-color="rgb(95.068359%, 42.253113%, 11.407471%)" offset="0.125"/><stop stop-opacity="1" stop-color="rgb(95.10498%, 42.501831%, 11.33728%)" offset="0.132813"/><stop stop-opacity="1" stop-color="rgb(95.143127%, 42.750549%, 11.26709%)" offset="0.140625"/><stop stop-opacity="1" stop-color="rgb(95.179749%, 42.999268%, 11.196899%)" offset="0.148438"/><stop stop-opacity="1" stop-color="rgb(95.21637%, 43.247986%, 11.126709%)" offset="0.15625"/><stop stop-opacity="1" stop-color="rgb(95.252991%, 43.495178%, 11.056519%)" offset="0.164063"/><stop stop-opacity="1" stop-color="rgb(95.289612%, 43.743896%, 10.986328%)" offset="0.171875"/><stop stop-opacity="1" stop-color="rgb(95.326233%, 43.992615%, 10.916138%)" offset="0.179688"/><stop stop-opacity="1" stop-color="rgb(95.362854%, 44.241333%, 10.845947%)" offset="0.1875"/><stop stop-opacity="1" stop-color="rgb(95.399475%, 44.488525%, 10.775757%)" offset="0.195313"/><stop stop-opacity="1" stop-color="rgb(95.436096%, 44.737244%, 10.705566%)" offset="0.203125"/><stop stop-opacity="1" stop-color="rgb(95.472717%, 44.985962%, 10.635376%)" offset="0.210938"/><stop stop-opacity="1" stop-color="rgb(95.509338%, 45.23468%, 10.565186%)" offset="0.21875"/><stop stop-opacity="1" stop-color="rgb(95.545959%, 45.483398%, 10.493469%)" offset="0.226563"/><stop stop-opacity="1" stop-color="rgb(95.582581%, 45.730591%, 10.423279%)" offset="0.234375"/><stop stop-opacity="1" stop-color="rgb(95.619202%, 45.979309%, 10.353088%)" offset="0.242188"/><stop stop-opacity="1" stop-color="rgb(95.655823%, 46.228027%, 10.282898%)" offset="0.25"/><stop stop-opacity="1" stop-color="rgb(95.692444%, 46.476746%, 10.212708%)" offset="0.257812"/><stop stop-opacity="1" stop-color="rgb(95.729065%, 46.725464%, 10.142517%)" offset="0.265625"/><stop stop-opacity="1" stop-color="rgb(95.767212%, 46.972656%, 10.072327%)" offset="0.273438"/><stop stop-opacity="1" stop-color="rgb(95.803833%, 47.221375%, 10.002136%)" offset="0.28125"/><stop stop-opacity="1" stop-color="rgb(95.840454%, 47.470093%, 9.931946%)" offset="0.289062"/><stop stop-opacity="1" stop-color="rgb(95.877075%, 47.718811%, 9.861755%)" offset="0.296875"/><stop stop-opacity="1" stop-color="rgb(95.913696%, 47.966003%, 9.791565%)" offset="0.304688"/><stop stop-opacity="1" stop-color="rgb(95.950317%, 48.214722%, 9.721375%)" offset="0.3125"/><stop stop-opacity="1" stop-color="rgb(95.986938%, 48.46344%, 9.651184%)" offset="0.320312"/><stop stop-opacity="1" stop-color="rgb(96.02356%, 48.712158%, 9.580994%)" offset="0.328125"/><stop stop-opacity="1" stop-color="rgb(96.060181%, 48.960876%, 9.509277%)" offset="0.335937"/><stop stop-opacity="1" stop-color="rgb(96.096802%, 49.208069%, 9.439087%)" offset="0.34375"/><stop stop-opacity="1" stop-color="rgb(96.133423%, 49.456787%, 9.368896%)" offset="0.351562"/><stop stop-opacity="1" stop-color="rgb(96.170044%, 49.705505%, 9.298706%)" offset="0.359375"/><stop stop-opacity="1" stop-color="rgb(96.206665%, 49.954224%, 9.228516%)" offset="0.367187"/><stop stop-opacity="1" stop-color="rgb(96.243286%, 50.202942%, 9.158325%)" offset="0.375"/><stop stop-opacity="1" stop-color="rgb(96.279907%, 50.450134%, 9.088135%)" offset="0.382812"/><stop stop-opacity="1" stop-color="rgb(96.316528%, 50.698853%, 9.017944%)" offset="0.390625"/><stop stop-opacity="1" stop-color="rgb(96.353149%, 50.947571%, 8.947754%)" offset="0.398437"/><stop stop-opacity="1" stop-color="rgb(96.391296%, 51.196289%, 8.877563%)" offset="0.40625"/><stop stop-opacity="1" stop-color="rgb(96.427917%, 51.445007%, 8.807373%)" offset="0.414062"/><stop stop-opacity="1" stop-color="rgb(96.464539%, 51.6922%, 8.737183%)" offset="0.421875"/><stop stop-opacity="1" stop-color="rgb(96.50116%, 51.940918%, 8.666992%)" offset="0.429687"/><stop stop-opacity="1" stop-color="rgb(96.537781%, 52.189636%, 8.596802%)" offset="0.4375"/><stop stop-opacity="1" stop-color="rgb(96.574402%, 52.438354%, 8.525085%)" offset="0.445312"/><stop stop-opacity="1" stop-color="rgb(96.611023%, 52.685547%, 8.454895%)" offset="0.453125"/><stop stop-opacity="1" stop-color="rgb(96.647644%, 52.934265%, 8.384705%)" offset="0.460938"/><stop stop-opacity="1" stop-color="rgb(96.684265%, 53.182983%, 8.314514%)" offset="0.46875"/><stop stop-opacity="1" stop-color="rgb(96.720886%, 53.431702%, 8.244324%)" offset="0.476562"/><stop stop-opacity="1" stop-color="rgb(96.757507%, 53.68042%, 8.174133%)" offset="0.484375"/><stop stop-opacity="1" stop-color="rgb(96.794128%, 53.927612%, 8.103943%)" offset="0.492188"/><stop stop-opacity="1" stop-color="rgb(96.83075%, 54.176331%, 8.033752%)" offset="0.5"/><stop stop-opacity="1" stop-color="rgb(96.867371%, 54.425049%, 7.963562%)" offset="0.507812"/><stop stop-opacity="1" stop-color="rgb(96.903992%, 54.673767%, 7.893372%)" offset="0.515625"/><stop stop-opacity="1" stop-color="rgb(96.940613%, 54.922485%, 7.823181%)" offset="0.523438"/><stop stop-opacity="1" stop-color="rgb(96.97876%, 55.169678%, 7.752991%)" offset="0.53125"/><stop stop-opacity="1" stop-color="rgb(97.015381%, 55.418396%, 7.6828%)" offset="0.539062"/><stop stop-opacity="1" stop-color="rgb(97.052002%, 55.667114%, 7.61261%)" offset="0.546875"/><stop stop-opacity="1" stop-color="rgb(97.088623%, 55.915833%, 7.540894%)" offset="0.554687"/><stop stop-opacity="1" stop-color="rgb(97.125244%, 56.163025%, 7.470703%)" offset="0.5625"/><stop stop-opacity="1" stop-color="rgb(97.161865%, 56.411743%, 7.400513%)" offset="0.570312"/><stop stop-opacity="1" stop-color="rgb(97.198486%, 56.660461%, 7.330322%)" offset="0.578125"/><stop stop-opacity="1" stop-color="rgb(97.235107%, 56.90918%, 7.260132%)" offset="0.585938"/><stop stop-opacity="1" stop-color="rgb(97.271729%, 57.157898%, 7.189941%)" offset="0.59375"/><stop stop-opacity="1" stop-color="rgb(97.30835%, 57.40509%, 7.119751%)" offset="0.601562"/><stop stop-opacity="1" stop-color="rgb(97.344971%, 57.653809%, 7.049561%)" offset="0.609375"/><stop stop-opacity="1" stop-color="rgb(97.381592%, 57.902527%, 6.97937%)" offset="0.617188"/><stop stop-opacity="1" stop-color="rgb(97.418213%, 58.151245%, 6.90918%)" offset="0.625"/><stop stop-opacity="1" stop-color="rgb(97.454834%, 58.399963%, 6.838989%)" offset="0.632812"/><stop stop-opacity="1" stop-color="rgb(97.491455%, 58.647156%, 6.768799%)" offset="0.640625"/><stop stop-opacity="1" stop-color="rgb(97.528076%, 58.895874%, 6.698608%)" offset="0.648437"/><stop stop-opacity="1" stop-color="rgb(97.564697%, 59.144592%, 6.628418%)" offset="0.65625"/><stop stop-opacity="1" stop-color="rgb(97.602844%, 59.393311%, 6.556702%)" offset="0.664062"/><stop stop-opacity="1" stop-color="rgb(97.639465%, 59.640503%, 6.486511%)" offset="0.671875"/><stop stop-opacity="1" stop-color="rgb(97.676086%, 59.889221%, 6.416321%)" offset="0.679688"/><stop stop-opacity="1" stop-color="rgb(97.712708%, 60.137939%, 6.34613%)" offset="0.6875"/><stop stop-opacity="1" stop-color="rgb(97.749329%, 60.386658%, 6.27594%)" offset="0.695312"/><stop stop-opacity="1" stop-color="rgb(97.78595%, 60.635376%, 6.20575%)" offset="0.703125"/><stop stop-opacity="1" stop-color="rgb(97.822571%, 60.882568%, 6.135559%)" offset="0.710937"/><stop stop-opacity="1" stop-color="rgb(97.859192%, 61.131287%, 6.065369%)" offset="0.71875"/><stop stop-opacity="1" stop-color="rgb(97.895813%, 61.380005%, 5.995178%)" offset="0.726562"/><stop stop-opacity="1" stop-color="rgb(97.932434%, 61.628723%, 5.924988%)" offset="0.734375"/><stop stop-opacity="1" stop-color="rgb(97.969055%, 61.877441%, 5.854797%)" offset="0.742187"/><stop stop-opacity="1" stop-color="rgb(98.005676%, 62.124634%, 5.784607%)" offset="0.75"/><stop stop-opacity="1" stop-color="rgb(98.042297%, 62.373352%, 5.714417%)" offset="0.757812"/><stop stop-opacity="1" stop-color="rgb(98.078918%, 62.62207%, 5.644226%)" offset="0.765625"/><stop stop-opacity="1" stop-color="rgb(98.11554%, 62.870789%, 5.57251%)" offset="0.773437"/><stop stop-opacity="1" stop-color="rgb(98.152161%, 63.117981%, 5.502319%)" offset="0.78125"/><stop stop-opacity="1" stop-color="rgb(98.188782%, 63.366699%, 5.432129%)" offset="0.789062"/><stop stop-opacity="1" stop-color="rgb(98.226929%, 63.615417%, 5.361938%)" offset="0.796875"/><stop stop-opacity="1" stop-color="rgb(98.26355%, 63.864136%, 5.291748%)" offset="0.804688"/><stop stop-opacity="1" stop-color="rgb(98.300171%, 64.112854%, 5.221558%)" offset="0.8125"/><stop stop-opacity="1" stop-color="rgb(98.336792%, 64.360046%, 5.151367%)" offset="0.820312"/><stop stop-opacity="1" stop-color="rgb(98.373413%, 64.608765%, 5.081177%)" offset="0.828125"/><stop stop-opacity="1" stop-color="rgb(98.410034%, 64.857483%, 5.010986%)" offset="0.835938"/><stop stop-opacity="1" stop-color="rgb(98.446655%, 65.106201%, 4.940796%)" offset="0.84375"/><stop stop-opacity="1" stop-color="rgb(98.483276%, 65.354919%, 4.870605%)" offset="0.851562"/><stop stop-opacity="1" stop-color="rgb(98.519897%, 65.602112%, 4.800415%)" offset="0.859375"/><stop stop-opacity="1" stop-color="rgb(98.556519%, 65.85083%, 4.730225%)" offset="0.867187"/><stop stop-opacity="1" stop-color="rgb(98.59314%, 66.099548%, 4.660034%)" offset="0.875"/><stop stop-opacity="1" stop-color="rgb(98.629761%, 66.348267%, 4.588318%)" offset="0.882812"/><stop stop-opacity="1" stop-color="rgb(98.666382%, 66.595459%, 4.518127%)" offset="0.890625"/><stop stop-opacity="1" stop-color="rgb(98.703003%, 66.844177%, 4.447937%)" offset="0.898438"/><stop stop-opacity="1" stop-color="rgb(98.739624%, 67.092896%, 4.377747%)" offset="0.90625"/><stop stop-opacity="1" stop-color="rgb(98.776245%, 67.341614%, 4.307556%)" offset="0.914062"/><stop stop-opacity="1" stop-color="rgb(98.812866%, 67.590332%, 4.237366%)" offset="0.921875"/><stop stop-opacity="1" stop-color="rgb(98.851013%, 67.837524%, 4.167175%)" offset="0.929688"/><stop stop-opacity="1" stop-color="rgb(98.887634%, 68.086243%, 4.096985%)" offset="0.9375"/><stop stop-opacity="1" stop-color="rgb(98.924255%, 68.334961%, 4.026794%)" offset="0.945312"/><stop stop-opacity="1" stop-color="rgb(98.960876%, 68.583679%, 3.956604%)" offset="0.953125"/><stop stop-opacity="1" stop-color="rgb(98.997498%, 68.832397%, 3.886414%)" offset="0.960938"/><stop stop-opacity="1" stop-color="rgb(99.034119%, 69.07959%, 3.816223%)" offset="0.96875"/><stop stop-opacity="1" stop-color="rgb(99.07074%, 69.328308%, 3.746033%)" offset="0.976562"/><stop stop-opacity="1" stop-color="rgb(99.107361%, 69.577026%, 3.675842%)" offset="0.984375"/><stop stop-opacity="1" stop-color="rgb(99.143982%, 69.825745%, 3.604126%)" offset="0.992187"/><stop stop-opacity="1" stop-color="rgb(99.180603%, 70.074463%, 3.533936%)" offset="1"/></linearGradient><clipPath id="ca8ebfd3bb"><path d="M 211 174 L 221 174 L 221 182 L 211 182 Z M 211 174 " clip-rule="nonzero"/></clipPath><clipPath id="97022111da"><path d="M 216.339844 181.585938 C 214.871094 179.480469 213.257812 177.386719 211.5 175.320312 L 218.460938 174.207031 C 219.0625 174.96875 219.648438 175.730469 220.21875 176.496094 Z M 216.339844 181.585938 " clip-rule="nonzero"/></clipPath><linearGradient x1="342.96899" gradientTransform="matrix(0.221911, 0, 0, 0.221911, 139.753083, 126.469207)" y1="248.380009" x2="342.96899" gradientUnits="userSpaceOnUse" y2="215.12001" id="bedec435ab"><stop stop-opacity="1" stop-color="rgb(94.499207%, 38.401794%, 12.498474%)" offset="0"/><stop stop-opacity="1" stop-color="rgb(94.517517%, 38.525391%, 12.463379%)" offset="0.0078125"/><stop stop-opacity="1" stop-color="rgb(94.554138%, 38.774109%, 12.393188%)" offset="0.015625"/><stop stop-opacity="1" stop-color="rgb(94.590759%, 39.022827%, 12.322998%)" offset="0.0234375"/><stop stop-opacity="1" stop-color="rgb(94.62738%, 39.271545%, 12.252808%)" offset="0.03125"/><stop stop-opacity="1" stop-color="rgb(94.665527%, 39.520264%, 12.182617%)" offset="0.0390625"/><stop stop-opacity="1" stop-color="rgb(94.702148%, 39.767456%, 12.110901%)" offset="0.046875"/><stop stop-opacity="1" stop-color="rgb(94.73877%, 40.016174%, 12.04071%)" offset="0.0546875"/><stop stop-opacity="1" stop-color="rgb(94.775391%, 40.264893%, 11.97052%)" offset="0.0625"/><stop stop-opacity="1" stop-color="rgb(94.812012%, 40.513611%, 11.90033%)" offset="0.0703125"/><stop stop-opacity="1" stop-color="rgb(94.848633%, 40.762329%, 11.830139%)" offset="0.078125"/><stop stop-opacity="1" stop-color="rgb(94.885254%, 41.009521%, 11.759949%)" offset="0.0859375"/><stop stop-opacity="1" stop-color="rgb(94.921875%, 41.25824%, 11.689758%)" offset="0.09375"/><stop stop-opacity="1" stop-color="rgb(94.958496%, 41.506958%, 11.619568%)" offset="0.101562"/><stop stop-opacity="1" stop-color="rgb(94.995117%, 41.755676%, 11.549377%)" offset="0.109375"/><stop stop-opacity="1" stop-color="rgb(95.031738%, 42.004395%, 11.479187%)" offset="0.117187"/><stop stop-opacity="1" stop-color="rgb(95.068359%, 42.253113%, 11.408997%)" offset="0.125"/><stop stop-opacity="1" stop-color="rgb(95.10498%, 42.500305%, 11.338806%)" offset="0.132812"/><stop stop-opacity="1" stop-color="rgb(95.141602%, 42.749023%, 11.26709%)" offset="0.140625"/><stop stop-opacity="1" stop-color="rgb(95.178223%, 42.997742%, 11.196899%)" offset="0.148438"/><stop stop-opacity="1" stop-color="rgb(95.21637%, 43.24646%, 11.126709%)" offset="0.15625"/><stop stop-opacity="1" stop-color="rgb(95.252991%, 43.495178%, 11.056519%)" offset="0.164062"/><stop stop-opacity="1" stop-color="rgb(95.289612%, 43.743896%, 10.986328%)" offset="0.171875"/><stop stop-opacity="1" stop-color="rgb(95.326233%, 43.991089%, 10.916138%)" offset="0.179687"/><stop stop-opacity="1" stop-color="rgb(95.362854%, 44.239807%, 10.845947%)" offset="0.1875"/><stop stop-opacity="1" stop-color="rgb(95.399475%, 44.488525%, 10.775757%)" offset="0.195312"/><stop stop-opacity="1" stop-color="rgb(95.436096%, 44.737244%, 10.705566%)" offset="0.203125"/><stop stop-opacity="1" stop-color="rgb(95.472717%, 44.985962%, 10.635376%)" offset="0.210938"/><stop stop-opacity="1" stop-color="rgb(95.509338%, 45.233154%, 10.565186%)" offset="0.21875"/><stop stop-opacity="1" stop-color="rgb(95.545959%, 45.481873%, 10.494995%)" offset="0.226562"/><stop stop-opacity="1" stop-color="rgb(95.582581%, 45.730591%, 10.423279%)" offset="0.234375"/><stop stop-opacity="1" stop-color="rgb(95.619202%, 45.979309%, 10.353088%)" offset="0.242187"/><stop stop-opacity="1" stop-color="rgb(95.655823%, 46.228027%, 10.282898%)" offset="0.25"/><stop stop-opacity="1" stop-color="rgb(95.692444%, 46.476746%, 10.212708%)" offset="0.257812"/><stop stop-opacity="1" stop-color="rgb(95.729065%, 46.723938%, 10.142517%)" offset="0.265625"/><stop stop-opacity="1" stop-color="rgb(95.767212%, 46.972656%, 10.072327%)" offset="0.273437"/><stop stop-opacity="1" stop-color="rgb(95.803833%, 47.221375%, 10.002136%)" offset="0.28125"/><stop stop-opacity="1" stop-color="rgb(95.840454%, 47.470093%, 9.931946%)" offset="0.289062"/><stop stop-opacity="1" stop-color="rgb(95.877075%, 47.718811%, 9.861755%)" offset="0.296875"/><stop stop-opacity="1" stop-color="rgb(95.913696%, 47.967529%, 9.791565%)" offset="0.304688"/><stop stop-opacity="1" stop-color="rgb(95.950317%, 48.214722%, 9.721375%)" offset="0.3125"/><stop stop-opacity="1" stop-color="rgb(95.986938%, 48.46344%, 9.651184%)" offset="0.320312"/><stop stop-opacity="1" stop-color="rgb(96.02356%, 48.712158%, 9.579468%)" offset="0.328125"/><stop stop-opacity="1" stop-color="rgb(96.060181%, 48.960876%, 9.509277%)" offset="0.335937"/><stop stop-opacity="1" stop-color="rgb(96.096802%, 49.209595%, 9.439087%)" offset="0.34375"/><stop stop-opacity="1" stop-color="rgb(96.133423%, 49.458313%, 9.368896%)" offset="0.351562"/><stop stop-opacity="1" stop-color="rgb(96.170044%, 49.705505%, 9.298706%)" offset="0.359375"/><stop stop-opacity="1" stop-color="rgb(96.206665%, 49.954224%, 9.228516%)" offset="0.367187"/><stop stop-opacity="1" stop-color="rgb(96.243286%, 50.202942%, 9.158325%)" offset="0.375"/><stop stop-opacity="1" stop-color="rgb(96.279907%, 50.45166%, 9.088135%)" offset="0.382812"/><stop stop-opacity="1" stop-color="rgb(96.318054%, 50.700378%, 9.017944%)" offset="0.390625"/><stop stop-opacity="1" stop-color="rgb(96.354675%, 50.947571%, 8.947754%)" offset="0.398437"/><stop stop-opacity="1" stop-color="rgb(96.391296%, 51.196289%, 8.877563%)" offset="0.40625"/><stop stop-opacity="1" stop-color="rgb(96.427917%, 51.445007%, 8.807373%)" offset="0.414062"/><stop stop-opacity="1" stop-color="rgb(96.464539%, 51.693726%, 8.735657%)" offset="0.421875"/><stop stop-opacity="1" stop-color="rgb(96.50116%, 51.942444%, 8.665466%)" offset="0.429687"/><stop stop-opacity="1" stop-color="rgb(96.537781%, 52.191162%, 8.595276%)" offset="0.4375"/><stop stop-opacity="1" stop-color="rgb(96.574402%, 52.438354%, 8.525085%)" offset="0.445312"/><stop stop-opacity="1" stop-color="rgb(96.611023%, 52.687073%, 8.454895%)" offset="0.453125"/><stop stop-opacity="1" stop-color="rgb(96.647644%, 52.935791%, 8.384705%)" offset="0.460937"/><stop stop-opacity="1" stop-color="rgb(96.684265%, 53.184509%, 8.314514%)" offset="0.46875"/><stop stop-opacity="1" stop-color="rgb(96.720886%, 53.433228%, 8.244324%)" offset="0.476562"/><stop stop-opacity="1" stop-color="rgb(96.757507%, 53.681946%, 8.174133%)" offset="0.484375"/><stop stop-opacity="1" stop-color="rgb(96.794128%, 53.929138%, 8.103943%)" offset="0.492187"/><stop stop-opacity="1" stop-color="rgb(96.83075%, 54.177856%, 8.033752%)" offset="0.5"/><stop stop-opacity="1" stop-color="rgb(96.867371%, 54.426575%, 7.963562%)" offset="0.507812"/><stop stop-opacity="1" stop-color="rgb(96.905518%, 54.675293%, 7.893372%)" offset="0.515625"/><stop stop-opacity="1" stop-color="rgb(96.942139%, 54.924011%, 7.821655%)" offset="0.523437"/><stop stop-opacity="1" stop-color="rgb(96.97876%, 55.172729%, 7.751465%)" offset="0.53125"/><stop stop-opacity="1" stop-color="rgb(97.015381%, 55.419922%, 7.681274%)" offset="0.539062"/><stop stop-opacity="1" stop-color="rgb(97.052002%, 55.66864%, 7.611084%)" offset="0.546875"/><stop stop-opacity="1" stop-color="rgb(97.088623%, 55.917358%, 7.540894%)" offset="0.554687"/><stop stop-opacity="1" stop-color="rgb(97.125244%, 56.166077%, 7.470703%)" offset="0.5625"/><stop stop-opacity="1" stop-color="rgb(97.161865%, 56.414795%, 7.400513%)" offset="0.570312"/><stop stop-opacity="1" stop-color="rgb(97.198486%, 56.661987%, 7.330322%)" offset="0.578125"/><stop stop-opacity="1" stop-color="rgb(97.235107%, 56.910706%, 7.260132%)" offset="0.585937"/><stop stop-opacity="1" stop-color="rgb(97.271729%, 57.159424%, 7.189941%)" offset="0.59375"/><stop stop-opacity="1" stop-color="rgb(97.30835%, 57.408142%, 7.119751%)" offset="0.601562"/><stop stop-opacity="1" stop-color="rgb(97.344971%, 57.65686%, 7.049561%)" offset="0.609375"/><stop stop-opacity="1" stop-color="rgb(97.381592%, 57.905579%, 6.977844%)" offset="0.617187"/><stop stop-opacity="1" stop-color="rgb(97.418213%, 58.152771%, 6.907654%)" offset="0.625"/><stop stop-opacity="1" stop-color="rgb(97.45636%, 58.401489%, 6.837463%)" offset="0.632812"/><stop stop-opacity="1" stop-color="rgb(97.492981%, 58.650208%, 6.767273%)" offset="0.640625"/><stop stop-opacity="1" stop-color="rgb(97.529602%, 58.898926%, 6.697083%)" offset="0.648437"/><stop stop-opacity="1" stop-color="rgb(97.566223%, 59.147644%, 6.626892%)" offset="0.65625"/><stop stop-opacity="1" stop-color="rgb(97.602844%, 59.396362%, 6.556702%)" offset="0.664062"/><stop stop-opacity="1" stop-color="rgb(97.639465%, 59.643555%, 6.486511%)" offset="0.671875"/><stop stop-opacity="1" stop-color="rgb(97.676086%, 59.892273%, 6.416321%)" offset="0.679687"/><stop stop-opacity="1" stop-color="rgb(97.712708%, 60.140991%, 6.34613%)" offset="0.6875"/><stop stop-opacity="1" stop-color="rgb(97.749329%, 60.389709%, 6.27594%)" offset="0.695312"/><stop stop-opacity="1" stop-color="rgb(97.78595%, 60.638428%, 6.20575%)" offset="0.703125"/><stop stop-opacity="1" stop-color="rgb(97.822571%, 60.887146%, 6.134033%)" offset="0.710937"/><stop stop-opacity="1" stop-color="rgb(97.859192%, 61.134338%, 6.063843%)" offset="0.71875"/><stop stop-opacity="1" stop-color="rgb(97.895813%, 61.383057%, 5.993652%)" offset="0.726562"/><stop stop-opacity="1" stop-color="rgb(97.932434%, 61.631775%, 5.923462%)" offset="0.734375"/><stop stop-opacity="1" stop-color="rgb(97.969055%, 61.880493%, 5.853271%)" offset="0.742187"/><stop stop-opacity="1" stop-color="rgb(98.007202%, 62.129211%, 5.783081%)" offset="0.75"/><stop stop-opacity="1" stop-color="rgb(98.043823%, 62.376404%, 5.712891%)" offset="0.757812"/><stop stop-opacity="1" stop-color="rgb(98.080444%, 62.625122%, 5.6427%)" offset="0.765625"/><stop stop-opacity="1" stop-color="rgb(98.117065%, 62.87384%, 5.57251%)" offset="0.773438"/><stop stop-opacity="1" stop-color="rgb(98.153687%, 63.122559%, 5.502319%)" offset="0.78125"/><stop stop-opacity="1" stop-color="rgb(98.190308%, 63.371277%, 5.432129%)" offset="0.789062"/><stop stop-opacity="1" stop-color="rgb(98.226929%, 63.619995%, 5.361938%)" offset="0.796875"/><stop stop-opacity="1" stop-color="rgb(98.26355%, 63.867188%, 5.290222%)" offset="0.804688"/><stop stop-opacity="1" stop-color="rgb(98.300171%, 64.115906%, 5.220032%)" offset="0.8125"/><stop stop-opacity="1" stop-color="rgb(98.336792%, 64.364624%, 5.149841%)" offset="0.820312"/><stop stop-opacity="1" stop-color="rgb(98.373413%, 64.613342%, 5.079651%)" offset="0.828125"/><stop stop-opacity="1" stop-color="rgb(98.410034%, 64.862061%, 5.00946%)" offset="0.835938"/><stop stop-opacity="1" stop-color="rgb(98.446655%, 65.110779%, 4.93927%)" offset="0.84375"/><stop stop-opacity="1" stop-color="rgb(98.483276%, 65.357971%, 4.86908%)" offset="0.851562"/><stop stop-opacity="1" stop-color="rgb(98.519897%, 65.606689%, 4.798889%)" offset="0.859375"/><stop stop-opacity="1" stop-color="rgb(98.556519%, 65.855408%, 4.728699%)" offset="0.867187"/><stop stop-opacity="1" stop-color="rgb(98.594666%, 66.104126%, 4.658508%)" offset="0.875"/><stop stop-opacity="1" stop-color="rgb(98.631287%, 66.352844%, 4.588318%)" offset="0.882812"/><stop stop-opacity="1" stop-color="rgb(98.667908%, 66.601562%, 4.518127%)" offset="0.890625"/><stop stop-opacity="1" stop-color="rgb(98.704529%, 66.848755%, 4.446411%)" offset="0.898437"/><stop stop-opacity="1" stop-color="rgb(98.74115%, 67.097473%, 4.376221%)" offset="0.90625"/><stop stop-opacity="1" stop-color="rgb(98.777771%, 67.346191%, 4.30603%)" offset="0.914062"/><stop stop-opacity="1" stop-color="rgb(98.814392%, 67.59491%, 4.23584%)" offset="0.921875"/><stop stop-opacity="1" stop-color="rgb(98.851013%, 67.843628%, 4.165649%)" offset="0.929687"/><stop stop-opacity="1" stop-color="rgb(98.887634%, 68.09082%, 4.095459%)" offset="0.9375"/><stop stop-opacity="1" stop-color="rgb(98.924255%, 68.339539%, 4.025269%)" offset="0.945312"/><stop stop-opacity="1" stop-color="rgb(98.960876%, 68.588257%, 3.955078%)" offset="0.953125"/><stop stop-opacity="1" stop-color="rgb(98.997498%, 68.836975%, 3.884888%)" offset="0.960937"/><stop stop-opacity="1" stop-color="rgb(99.034119%, 69.085693%, 3.814697%)" offset="0.96875"/><stop stop-opacity="1" stop-color="rgb(99.07074%, 69.334412%, 3.744507%)" offset="0.976562"/><stop stop-opacity="1" stop-color="rgb(99.107361%, 69.581604%, 3.674316%)" offset="0.984375"/><stop stop-opacity="1" stop-color="rgb(99.145508%, 69.830322%, 3.6026%)" offset="0.992187"/><stop stop-opacity="1" stop-color="rgb(99.180603%, 70.077515%, 3.53241%)" offset="1"/></linearGradient><clipPath id="27d6dbe41c"><path d="M 139 126.46875 L 239 126.46875 L 239 248.71875 L 139 248.71875 Z M 139 126.46875 " clip-rule="nonzero"/></clipPath><clipPath id="c14707985d"><path d="M 96.398438 201.289062 L 104.9375 201.289062 L 104.9375 209.828125 L 96.398438 209.828125 Z M 96.398438 201.289062 " clip-rule="nonzero"/></clipPath><clipPath id="ddb520e96a"><path d="M 100.667969 201.289062 C 98.308594 201.289062 96.398438 203.203125 96.398438 205.558594 C 96.398438 207.917969 98.308594 209.828125 100.667969 209.828125 C 103.023438 209.828125 104.9375 207.917969 104.9375 205.558594 C 104.9375 203.203125 103.023438 201.289062 100.667969 201.289062 Z M 100.667969 201.289062 " clip-rule="nonzero"/></clipPath><clipPath id="ccc8f74143"><path d="M 270.0625 209.828125 L 278.601562 209.828125 L 278.601562 218.367188 L 270.0625 218.367188 Z M 270.0625 209.828125 " clip-rule="nonzero"/></clipPath><clipPath id="1fc6114264"><path d="M 274.332031 209.828125 C 271.976562 209.828125 270.0625 211.742188 270.0625 214.097656 C 270.0625 216.457031 271.976562 218.367188 274.332031 218.367188 C 276.691406 218.367188 278.601562 216.457031 278.601562 214.097656 C 278.601562 211.742188 276.691406 209.828125 274.332031 209.828125 Z M 274.332031 209.828125 " clip-rule="nonzero"/></clipPath></defs><g clip-path="url(#5b3deaac6f)"><g clip-path="url(#7fd5a21184)"><path fill="#ffffff" d="M 74.972656 74.972656 L 300.027344 74.972656 L 300.027344 300.027344 L 74.972656 300.027344 Z M 74.972656 74.972656 " fill-opacity="1" fill-rule="nonzero"/></g></g><g clip-path="url(#872da067ee)"><g clip-path="url(#4b73ba2485)"><path stroke-linecap="butt" transform="matrix(0.75, 0, 0, 0.75, 74.972606, 74.972601)" fill="none" stroke-linejoin="miter" d="M 150.031327 0.0000730309 C 67.171946 0.0000730309 0.0000670309 67.171952 0.0000670309 150.031333 C 0.0000670309 232.890713 67.171946 300.062593 150.031327 300.062593 C 232.890707 300.062593 300.062587 232.890713 300.062587 150.031333 C 300.062587 67.171952 232.890707 0.0000730309 150.031327 0.0000730309 Z M 150.031327 0.0000730309 " stroke="#000000" stroke-width="6" stroke-opacity="1" stroke-miterlimit="4"/></g></g><g clip-path="url(#0ce7eea8d5)"><g clip-path="url(#b8577cc4e2)"><path fill="#ffffff" d="M 80.265625 80.265625 L 294.734375 80.265625 L 294.734375 294.734375 L 80.265625 294.734375 Z M 80.265625 80.265625 " fill-opacity="1" fill-rule="nonzero"/></g></g><g clip-path="url(#4ecd534eb2)"><g clip-path="url(#057850085b)"><path stroke-linecap="butt" transform="matrix(0.75, 0, 0, 0.75, 80.26385, 80.263845)" fill="none" stroke-linejoin="miter" d="M 142.976335 0.00237316 C 64.012788 0.00237316 0.00236716 64.012794 0.00236716 142.976341 C 0.00236716 221.939888 64.012788 285.955517 142.976335 285.955517 C 221.939882 285.955517 285.955511 221.939888 285.955511 142.976341 C 285.955511 64.012794 221.939882 0.00237316 142.976335 0.00237316 Z M 142.976335 0.00237316 " stroke="#000000" stroke-width="10" stroke-opacity="1" stroke-miterlimit="4"/></g></g><g clip-path="url(#2a9b980674)"><g clip-path="url(#1ae770982b)"><path fill="url(#63ee205452)" d="M 188.851562 151.394531 L 188.851562 161.285156 L 198.832031 161.285156 L 198.832031 151.394531 Z M 188.851562 151.394531 " fill-rule="nonzero"/></g></g><g clip-path="url(#ca8ebfd3bb)"><g clip-path="url(#97022111da)"><path fill="url(#bedec435ab)" d="M 211.5 174.207031 L 211.5 181.585938 L 220.21875 181.585938 L 220.21875 174.207031 Z M 211.5 174.207031 " fill-rule="nonzero"/></g></g><path fill="#000000" d="M 179.996094 145.683594 C 182.832031 146.597656 185.765625 147.816406 188.746094 149.328125 L 184.992188 154.449219 C 173.535156 149.066406 162.988281 148.601562 157.273438 154.308594 C 154.058594 157.53125 152.800781 162.289062 153.285156 167.890625 C 153.546875 170.929688 154.320312 174.21875 155.574219 177.640625 C 151.851562 169.179688 150.597656 161.246094 152.222656 155.140625 C 152.9375 152.453125 154.210938 150.128906 156.074219 148.265625 C 157.492188 146.847656 159.175781 145.773438 161.082031 145.023438 C 166.148438 143.039062 172.753906 143.355469 179.996094 145.683594 Z M 208.085938 171.53125 L 215.269531 170.386719 C 213.894531 168.820312 212.445312 167.269531 210.917969 165.746094 C 208.140625 162.96875 205.273438 160.421875 202.367188 158.128906 L 200.386719 162.921875 L 199.945312 163.992188 C 202.210938 165.839844 204.445312 167.859375 206.625 170.035156 C 207.121094 170.535156 207.605469 171.03125 208.085938 171.53125 Z M 230.976562 196.667969 C 229.289062 191.390625 226.523438 185.773438 222.800781 180.175781 L 218.824219 185.390625 C 227.226562 199.160156 229.09375 212.644531 222.351562 219.386719 C 219.117188 222.621094 214.316406 223.871094 208.679688 223.367188 C 205.664062 223.097656 202.410156 222.328125 199.023438 221.085938 C 207.484375 224.8125 215.425781 226.070312 221.53125 224.4375 C 224.210938 223.722656 226.539062 222.449219 228.398438 220.589844 C 229.800781 219.1875 230.859375 217.53125 231.609375 215.65625 C 233.628906 210.585938 233.324219 203.949219 230.976562 196.667969 Z M 230.976562 196.667969 " fill-opacity="1" fill-rule="nonzero"/><g clip-path="url(#27d6dbe41c)"><path fill="#d40c0c" d="M 218.460938 174.207031 L 211.503906 175.324219 L 189.171875 178.894531 L 196.429688 161.292969 L 198.832031 155.480469 L 201.328125 149.425781 L 204.804688 140.996094 L 206.609375 136.625 L 207.253906 135.074219 L 210.800781 126.46875 L 205.015625 134.367188 L 203.957031 135.808594 L 200.980469 139.878906 L 195.050781 147.96875 L 192.539062 151.394531 L 188.851562 156.425781 L 164.371094 189.832031 C 166.699219 193.042969 169.308594 196.199219 172.164062 199.261719 L 186.027344 197.433594 L 181.648438 208.230469 C 184.660156 210.738281 187.753906 213.003906 190.855469 215.003906 L 216.335938 181.585938 L 220.21875 176.496094 L 222.449219 173.566406 Z M 233.671875 195.730469 C 237.988281 207.523438 237.636719 218.015625 231.601562 224.042969 C 223.078125 232.570312 205.65625 229.757812 188.234375 218.4375 C 185.460938 216.632812 182.691406 214.617188 179.953125 212.398438 C 177.152344 210.128906 174.394531 207.644531 171.707031 204.957031 C 170.058594 203.3125 168.492188 201.640625 166.996094 199.945312 C 165.113281 197.800781 163.347656 195.628906 161.722656 193.445312 C 147.550781 174.441406 143.273438 154.402344 152.613281 145.054688 C 158.652344 139.023438 169.136719 138.675781 180.933594 142.992188 C 166.152344 136.492188 152.6875 136.1875 145.273438 143.601562 C 134.511719 154.363281 140.011719 177.886719 157.160156 199.675781 C 157.535156 200.148438 157.910156 200.625 158.296875 201.09375 C 160.800781 204.179688 163.539062 207.214844 166.492188 210.171875 C 169.921875 213.601562 173.46875 216.738281 177.054688 219.554688 L 175.386719 223.664062 L 174.914062 224.828125 L 173 229.550781 L 170.632812 235.378906 L 168.0625 241.71875 L 165.304688 248.511719 L 169.9375 242.4375 L 175.835938 234.695312 L 178.421875 231.304688 L 181.109375 227.785156 L 181.875 226.777344 L 183.703125 224.386719 C 203.453125 237.601562 223.398438 241.050781 233.066406 231.382812 C 240.476562 223.972656 240.175781 210.511719 233.671875 195.730469 Z M 233.671875 195.730469 " fill-opacity="1" fill-rule="nonzero"/></g><g fill="#000000" fill-opacity="1"><g transform="translate(117.180054, 156.83402)"><g><path d="M -9.125 -21.984375 L -6.546875 -26.1875 L 5.421875 -18.890625 C 7.066406 -17.890625 8.03125 -16.789062 8.3125 -15.59375 C 8.601562 -14.40625 8.25 -12.988281 7.25 -11.34375 L 3.953125 -5.953125 C 2.953125 -4.304688 1.851562 -3.335938 0.65625 -3.046875 C -0.53125 -2.765625 -1.945312 -3.125 -3.59375 -4.125 L -15.5625 -11.421875 L -12.984375 -15.640625 L -1.015625 -8.34375 C -0.078125 -7.769531 0.675781 -7.953125 1.25 -8.890625 L 3.390625 -12.40625 C 3.960938 -13.351562 3.78125 -14.113281 2.84375 -14.6875 Z M -9.125 -21.984375 "/></g></g></g><g fill="#000000" fill-opacity="1"><g transform="translate(128.819909, 138.221747)"><g><path d="M 13.625 -12.390625 L 9.75 -8.875 L -2.890625 -12.96875 L 4.875 -4.4375 L 1.21875 -1.109375 L -11.71875 -15.34375 L -7.859375 -18.84375 L 4.78125 -14.734375 L -2.984375 -23.28125 L 0.6875 -26.625 Z M 13.625 -12.390625 "/></g></g></g><g fill="#000000" fill-opacity="1"><g transform="translate(145.359426, 124.110185)"><g><path d="M 9.375 -5.203125 L 0.71875 -0.40625 L -1.140625 -3.765625 L 1.015625 -4.953125 L -4.59375 -15.03125 L -6.75 -13.84375 L -8.625 -17.21875 L 0.03125 -22.015625 L 1.90625 -18.640625 L -0.265625 -17.4375 L 5.34375 -7.359375 L 7.515625 -8.5625 Z M 9.375 -5.203125 "/></g></g></g><g fill="#000000" fill-opacity="1"><g transform="translate(156.905909, 117.406861)"><g><path d="M 7.78125 -8.234375 L 8.546875 -22.46875 L 13.703125 -23.953125 L 12.015625 -3.453125 L 6.734375 -1.9375 L -5.578125 -18.40625 L -0.4375 -19.890625 Z M 7.78125 -8.234375 "/></g></g></g><g fill="#000000" fill-opacity="1"><g transform="translate(177.174456, 111.928705)"><g><path d="M 16.890625 -0.296875 L 1.640625 -0.03125 L 1.3125 -19.265625 L 16.5625 -19.53125 L 16.625 -15.671875 L 6.328125 -15.484375 L 6.390625 -11.78125 L 14.5 -11.921875 L 14.5625 -8.078125 L 6.453125 -7.9375 L 6.53125 -3.953125 L 16.828125 -4.140625 Z M 16.890625 -0.296875 "/></g></g></g><g fill="#000000" fill-opacity="1"><g transform="translate(196.132429, 111.648632)"><g><path d="M 6.296875 -18.25 L 17.484375 -15.4375 C 19.347656 -14.96875 20.59375 -14.203125 21.21875 -13.140625 C 21.851562 -12.085938 21.9375 -10.625 21.46875 -8.75 L 20.859375 -6.359375 C 20.492188 -4.890625 19.960938 -3.800781 19.265625 -3.09375 C 18.578125 -2.394531 17.664062 -2.050781 16.53125 -2.0625 L 18.375 4.640625 L 13.1875 3.328125 L 11.53125 -3.046875 L 7.796875 -3.984375 L 6.390625 1.609375 L 1.59375 0.40625 Z M 16.671875 -9.953125 C 16.941406 -11.015625 16.546875 -11.679688 15.484375 -11.953125 L 10.15625 -13.296875 L 8.734375 -7.703125 L 14.0625 -6.359375 C 15.125 -6.085938 15.789062 -6.488281 16.0625 -7.5625 Z M 16.671875 -9.953125 "/></g></g></g><g fill="#000000" fill-opacity="1"><g transform="translate(216.639666, 117.118501)"><g><path d="M 2.90625 -2.9375 C 7.125 -0.21875 10.007812 1.578125 11.5625 2.453125 C 11.925781 2.660156 12.273438 2.71875 12.609375 2.625 C 12.941406 2.539062 13.210938 2.316406 13.421875 1.953125 L 14.65625 -0.203125 L 9.15625 -3.328125 C 7.488281 -4.273438 6.488281 -5.34375 6.15625 -6.53125 C 5.832031 -7.71875 6.144531 -9.144531 7.09375 -10.8125 L 7.5 -11.53125 C 8.457031 -13.207031 9.523438 -14.207031 10.703125 -14.53125 C 11.890625 -14.851562 13.316406 -14.539062 14.984375 -13.59375 L 23.375 -8.828125 L 21.46875 -5.46875 L 14.046875 -9.6875 C 13.085938 -10.238281 12.335938 -10.039062 11.796875 -9.09375 L 11.53125 -8.625 C 10.988281 -7.664062 11.195312 -6.910156 12.15625 -6.359375 L 16.453125 -3.921875 C 18.003906 -3.035156 18.9375 -2.019531 19.25 -0.875 C 19.570312 0.269531 19.289062 1.628906 18.40625 3.203125 L 17.71875 4.390625 C 16.832031 5.953125 15.8125 6.890625 14.65625 7.203125 C 13.507812 7.523438 12.160156 7.242188 10.609375 6.359375 C 9.785156 5.898438 8.929688 5.390625 8.046875 4.828125 L 5.921875 3.484375 C 4.335938 2.484375 2.722656 1.414062 1.078125 0.28125 Z M 2.90625 -2.9375 "/></g></g></g><g fill="#000000" fill-opacity="1"><g transform="translate(233.861126, 127.056309)"><g><path d="M 3.59375 3.59375 L -0.203125 -0.203125 L 18.546875 -8.640625 L 22.4375 -4.75 L 13.984375 13.984375 L 10.203125 10.203125 L 11.765625 6.890625 L 6.90625 2.03125 Z M 10.296875 0.390625 L 13.40625 3.5 L 16.40625 -2.625 Z M 10.296875 0.390625 "/></g></g></g><g fill="#000000" fill-opacity="1"><g transform="translate(248.460369, 142.171683)"><g><path d="M 6.640625 3.765625 L 11.671875 12.4375 L 8.34375 14.375 L 0.828125 1.421875 L 17.46875 -8.234375 L 19.953125 -3.953125 Z M 6.640625 3.765625 "/></g></g></g><g fill="#000000" fill-opacity="1"><g transform="translate(93.837744, 214.402102)"><g><path d="M 6.1875 15.71875 L 0.59375 1.53125 L 18.5 -5.5 L 24.09375 8.6875 L 20.5 10.09375 L 16.71875 0.515625 L 13.265625 1.875 L 16.234375 9.421875 L 12.65625 10.828125 L 9.6875 3.28125 L 5.984375 4.734375 L 9.765625 14.3125 Z M 6.1875 15.71875 "/></g></g></g><g fill="#000000" fill-opacity="1"><g transform="translate(102.57903, 235.003742)"><g><path d="M 6.90625 3.265625 L 12.578125 11.53125 L 9.40625 13.703125 L 0.921875 1.359375 L 16.78125 -9.515625 L 19.59375 -5.4375 Z M 6.90625 3.265625 "/></g></g></g><g fill="#000000" fill-opacity="1"><g transform="translate(115.366697, 252.709249)"><g><path d="M 12.4375 11.421875 L 1.203125 1.109375 L 14.21875 -13.0625 L 25.453125 -2.75 L 22.828125 0.09375 L 15.25 -6.875 L 12.75 -4.140625 L 18.71875 1.34375 L 16.125 4.171875 L 10.15625 -1.3125 L 7.453125 1.625 L 15.03125 8.59375 Z M 12.4375 11.421875 "/></g></g></g><g fill="#000000" fill-opacity="1"><g transform="translate(132.252399, 267.410138)"><g><path d="M 14.484375 7.875 C 10.742188 6.195312 7.703125 4.691406 5.359375 3.359375 C 3.796875 2.472656 2.851562 1.453125 2.53125 0.296875 C 2.21875 -0.847656 2.503906 -2.203125 3.390625 -3.765625 L 7.71875 -11.421875 C 8.664062 -13.097656 9.734375 -14.097656 10.921875 -14.421875 C 12.109375 -14.742188 13.539062 -14.429688 15.21875 -13.484375 L 23.828125 -8.609375 L 21.921875 -5.25 L 14.265625 -9.59375 C 13.316406 -10.125 12.570312 -9.914062 12.03125 -8.96875 L 7.703125 -1.3125 C 7.492188 -0.945312 7.4375 -0.597656 7.53125 -0.265625 C 7.625 0.0664062 7.835938 0.328125 8.171875 0.515625 C 8.503906 0.703125 8.867188 0.90625 9.265625 1.125 C 9.671875 1.351562 10.09375 1.578125 10.53125 1.796875 C 10.96875 2.015625 11.410156 2.242188 11.859375 2.484375 C 12.316406 2.722656 12.90625 3.015625 13.625 3.359375 C 14.34375 3.703125 15.238281 4.132812 16.3125 4.65625 Z M 14.484375 7.875 "/></g></g></g><g fill="#000000" fill-opacity="1"><g transform="translate(151.628878, 277.743373)"><g><path d="M 10.53125 3.140625 L 5.796875 1.734375 L 10.1875 -13 L 4.65625 -14.65625 L 5.765625 -18.359375 L 21.546875 -13.640625 L 20.4375 -9.9375 L 14.921875 -11.59375 Z M 10.53125 3.140625 "/></g></g></g><g fill="#000000" fill-opacity="1"><g transform="translate(172.941261, 283.638017)"><g><path d="M 2.59375 -19.125 L 14.125 -18.546875 C 16.039062 -18.453125 17.410156 -17.953125 18.234375 -17.046875 C 19.066406 -16.140625 19.429688 -14.722656 19.328125 -12.796875 L 19.21875 -10.328125 C 19.132812 -8.804688 18.820312 -7.632812 18.28125 -6.8125 C 17.738281 -6 16.910156 -5.488281 15.796875 -5.28125 L 18.9375 0.9375 L 13.578125 0.671875 L 10.703125 -5.25 L 6.859375 -5.4375 L 6.578125 0.328125 L 1.640625 0.078125 Z M 14.390625 -13.046875 C 14.453125 -14.140625 13.9375 -14.710938 12.84375 -14.765625 L 7.34375 -15.03125 L 7.046875 -9.265625 L 12.546875 -9 C 13.640625 -8.945312 14.21875 -9.472656 14.28125 -10.578125 Z M 14.390625 -13.046875 "/></g></g></g><g fill="#000000" fill-opacity="1"><g transform="translate(197.477041, 283.919287)"><g><path d="M 10.578125 -1.71875 L 0.8125 -0.125 L 0.203125 -3.921875 L 2.640625 -4.328125 L 0.796875 -15.703125 L -1.640625 -15.296875 L -2.265625 -19.109375 L 7.5 -20.703125 L 8.125 -16.890625 L 5.671875 -16.484375 L 7.515625 -5.109375 L 9.96875 -5.515625 Z M 10.578125 -1.71875 "/></g></g></g><g fill="#000000" fill-opacity="1"><g transform="translate(213.457794, 281.144398)"><g><path d="M 15.359375 -5.984375 C 11.660156 -4.210938 8.546875 -2.859375 6.015625 -1.921875 C 4.335938 -1.304688 2.957031 -1.242188 1.875 -1.734375 C 0.789062 -2.234375 -0.0625 -3.320312 -0.6875 -5 L -3.734375 -13.25 C -4.410156 -15.0625 -4.492188 -16.523438 -3.984375 -17.640625 C -3.472656 -18.753906 -2.3125 -19.648438 -0.5 -20.328125 L 8.765625 -23.75 L 10.109375 -20.140625 L 1.859375 -17.09375 C 0.835938 -16.707031 0.519531 -16 0.90625 -14.96875 L 3.953125 -6.71875 C 4.097656 -6.332031 4.328125 -6.066406 4.640625 -5.921875 C 4.953125 -5.785156 5.285156 -5.78125 5.640625 -5.90625 C 6.003906 -6.039062 6.398438 -6.191406 6.828125 -6.359375 C 7.265625 -6.523438 7.710938 -6.703125 8.171875 -6.890625 C 8.628906 -7.078125 9.09375 -7.265625 9.5625 -7.453125 C 10.03125 -7.648438 10.625 -7.914062 11.34375 -8.25 C 12.070312 -8.582031 12.976562 -8.984375 14.0625 -9.453125 Z M 15.359375 -5.984375 "/></g></g></g><g fill="#000000" fill-opacity="1"><g transform="translate(234.01498, 273.0401)"><g><path d="M 4.203125 -2.84375 L -0.234375 0.15625 L -4.96875 -19.859375 L -0.40625 -22.9375 L 16.390625 -11.0625 L 11.953125 -8.0625 L 9.015625 -10.21875 L 3.3125 -6.375 Z M 2.328125 -10.015625 L 5.984375 -12.484375 L 0.546875 -16.609375 Z M 2.328125 -10.015625 "/></g></g></g><g fill="#000000" fill-opacity="1"><g transform="translate(253.916327, 258.695103)"><g><path d="M 1.59375 -7.46875 L 8.34375 -14.890625 L 11.1875 -12.296875 L 1.109375 -1.21875 L -13.109375 -14.171875 L -9.78125 -17.828125 Z M 1.59375 -7.46875 "/></g></g></g><g fill="#000000" fill-opacity="1"><g transform="translate(268.289377, 242.182671)"><g><path d="M -2.96875 -2.875 C -0.289062 -7.125 1.476562 -10.023438 2.34375 -11.578125 C 2.539062 -11.941406 2.59375 -12.289062 2.5 -12.625 C 2.414062 -12.96875 2.191406 -13.238281 1.828125 -13.4375 L -0.34375 -14.640625 L -3.421875 -9.109375 C -4.347656 -7.429688 -5.398438 -6.425781 -6.578125 -6.09375 C -7.765625 -5.757812 -9.195312 -6.054688 -10.875 -6.984375 L -11.609375 -7.390625 C -13.285156 -8.316406 -14.289062 -9.367188 -14.625 -10.546875 C -14.96875 -11.734375 -14.675781 -13.164062 -13.75 -14.84375 L -9.078125 -23.28125 L -5.703125 -21.40625 L -9.84375 -13.9375 C -10.375 -12.976562 -10.164062 -12.238281 -9.21875 -11.71875 L -8.734375 -11.453125 C -7.765625 -10.910156 -7.015625 -11.117188 -6.484375 -12.078125 L -4.078125 -16.40625 C -3.210938 -17.96875 -2.207031 -18.914062 -1.0625 -19.25 C 0.0703125 -19.582031 1.429688 -19.3125 3.015625 -18.4375 L 4.21875 -17.765625 C 5.78125 -16.898438 6.722656 -15.890625 7.046875 -14.734375 C 7.378906 -13.585938 7.113281 -12.234375 6.25 -10.671875 C 5.789062 -9.847656 5.289062 -8.988281 4.75 -8.09375 L 3.421875 -5.953125 C 2.429688 -4.359375 1.378906 -2.734375 0.265625 -1.078125 Z M -2.96875 -2.875 "/></g></g></g><g fill="#000000" fill-opacity="1"><g transform="translate(278.640705, 221.709577)"><g/></g></g><g clip-path="url(#c14707985d)"><g clip-path="url(#ddb520e96a)"><path fill="#000000" d="M 96.398438 201.289062 L 104.9375 201.289062 L 104.9375 209.828125 L 96.398438 209.828125 Z M 96.398438 201.289062 " fill-opacity="1" fill-rule="nonzero"/></g></g><g clip-path="url(#ccc8f74143)"><g clip-path="url(#1fc6114264)"><path fill="#000000" d="M 270.0625 209.828125 L 278.601562 209.828125 L 278.601562 218.367188 L 270.0625 218.367188 Z M 270.0625 209.828125 " fill-opacity="1" fill-rule="nonzero"/></g></g></svg>